<?xml version="1.0" standalone="no"?>
<!DOCTYPE svg PUBLIC "-//W3C//DTD SVG 20010904//EN"
 "http://www.w3.org/TR/2001/REC-SVG-20010904/DTD/svg10.dtd">
<svg version="1.0" xmlns="http://www.w3.org/2000/svg"
 width="4303.000000pt" height="2969.000000pt" viewBox="0 0 4303.000000 2969.000000"
 preserveAspectRatio="xMidYMid meet">

<g transform="translate(0.000000,2969.000000) scale(0.100000,-0.100000)"
fill="#000000" stroke="none">
<path d="M8866 22749 c-4 -29 -10 -65 -13 -80 -5 -25 -2 -29 16 -29 27 0 27
-3 -9 -56 l-31 -44 53 0 c49 0 57 4 113 51 57 50 61 54 72 118 6 36 12 72 12
79 1 9 -26 12 -103 12 l-103 0 -7 -51z"/>
<path d="M1585 22728 c-3 -13 -25 -140 -50 -283 -25 -143 -48 -272 -51 -287
l-6 -28 104 0 104 0 52 298 c29 163 52 303 52 310 0 9 -27 12 -100 12 -95 0
-100 -1 -105 -22z"/>
<path d="M1935 22674 c-49 -42 -91 -77 -92 -78 -1 0 -18 -93 -38 -206 -19
-113 -38 -217 -41 -232 l-6 -28 361 0 c199 0 361 2 361 3 0 2 11 64 25 138 14
74 25 142 25 152 0 16 -16 17 -204 17 l-203 0 -7 -31 c-14 -70 -16 -69 88 -69
52 0 97 -4 100 -8 2 -4 0 -29 -6 -55 l-10 -47 -149 0 c-135 0 -149 2 -149 18
0 9 13 91 29 181 38 214 34 210 214 211 l128 0 -7 -50 -7 -50 101 0 c114 0
104 -8 122 100 6 36 13 75 15 88 l5 22 -282 0 -283 0 -90 -76z"/>
<path d="M2655 22728 c-3 -13 -25 -140 -50 -283 -25 -143 -48 -272 -51 -287
l-6 -28 104 0 104 0 52 298 c29 163 52 303 52 310 0 9 -27 12 -100 12 -95 0
-100 -1 -105 -22z"/>
<path d="M2927 22733 c-3 -10 -8 -35 -12 -55 l-6 -38 126 0 c112 0 125 -2 125
-17 0 -10 -18 -119 -40 -243 -22 -124 -40 -231 -40 -238 0 -10 24 -12 102 -10
l102 3 32 180 c17 99 37 213 44 253 l12 72 128 0 129 0 6 38 c4 20 9 45 12 55
4 16 -18 17 -356 17 -334 0 -360 -1 -364 -17z"/>
<path d="M4125 22674 l-90 -76 -17 -81 c-9 -45 -19 -103 -23 -129 l-7 -48 254
-2 253 -3 -3 -25 c-1 -14 -17 -37 -35 -52 l-32 -27 -228 -1 c-173 0 -229 -3
-232 -12 -2 -7 -6 -30 -10 -50 l-6 -38 285 0 284 0 89 76 c84 72 89 78 100
132 7 31 12 67 13 80 l0 22 -256 0 c-210 0 -255 2 -251 13 3 8 8 40 12 72 6
48 14 64 39 87 30 28 32 28 159 28 l128 0 -7 -50 -7 -50 101 0 c114 0 104 -8
122 100 6 36 13 75 15 88 l5 22 -282 0 -283 0 -90 -76z"/>
<path d="M4915 22674 c-49 -42 -91 -77 -92 -78 -1 0 -18 -93 -38 -206 -19
-113 -38 -217 -41 -232 l-6 -28 104 0 104 0 19 103 20 102 144 3 c80 1 148 -1
152 -5 4 -4 -1 -52 -11 -105 l-17 -98 103 0 102 0 6 28 c3 15 26 144 51 287
25 143 48 270 50 283 l5 22 -282 0 -283 0 -90 -76z m421 -66 c-3 -18 -10 -63
-17 -100 l-11 -68 -155 0 c-126 0 -154 3 -150 13 3 8 8 40 12 72 6 48 14 64
39 87 30 28 32 28 159 28 l129 0 -6 -32z"/>
<path d="M5705 22674 c-49 -42 -91 -77 -92 -78 -1 0 -18 -93 -38 -206 -19
-113 -38 -217 -41 -232 l-6 -28 105 0 104 0 39 228 c37 216 40 228 69 255 29
27 32 27 158 27 l129 0 -6 -32 c-3 -18 -8 -52 -12 -76 -10 -67 -50 -92 -146
-92 l-75 0 -7 -31 c-12 -63 -10 -68 42 -71 l47 -3 33 -102 33 -103 105 0 c57
0 104 3 104 8 1 4 5 26 9 49 8 40 7 42 -17 45 -21 2 -29 12 -42 52 -9 29 -24
52 -35 56 -15 5 -3 19 64 76 45 38 84 78 86 89 3 11 12 61 20 110 9 50 18 100
21 113 l4 22 -282 0 -283 0 -90 -76z"/>
<path d="M6495 22674 c-49 -42 -91 -77 -92 -78 -1 0 -18 -93 -38 -206 -19
-113 -38 -217 -41 -232 l-6 -28 104 0 104 0 19 103 20 102 144 3 c80 1 148 -1
152 -5 4 -4 -1 -52 -11 -105 l-17 -98 103 0 102 0 6 28 c3 15 26 144 51 287
25 143 48 270 50 283 l5 22 -282 0 -283 0 -90 -76z m421 -66 c-3 -18 -10 -63
-17 -100 l-11 -68 -155 0 c-126 0 -154 3 -150 13 3 8 8 40 12 72 6 48 14 64
39 87 30 28 32 28 159 28 l129 0 -6 -32z"/>
<path d="M7215 22728 c-3 -13 -25 -140 -50 -283 -25 -143 -48 -272 -51 -287
l-6 -28 104 0 104 0 45 253 44 252 131 3 131 3 18 -28 c17 -26 17 -33 -22
-252 l-39 -226 99 -3 c55 -1 101 -1 104 1 2 3 22 106 44 231 34 190 38 229 27
244 -7 10 -35 46 -63 80 l-50 61 -282 0 -283 1 -5 -22z"/>
<path d="M8075 22674 c-49 -42 -91 -77 -92 -78 -1 0 -18 -93 -38 -206 -19
-113 -38 -217 -41 -232 l-6 -28 361 0 c199 0 361 2 361 3 0 2 11 64 25 138 14
74 25 142 25 152 0 16 -16 17 -204 17 l-203 0 -7 -31 c-14 -70 -16 -69 88 -69
52 0 97 -4 100 -8 2 -4 0 -29 -6 -55 l-10 -47 -149 0 c-135 0 -149 2 -149 18
0 9 13 91 29 181 38 214 34 210 214 211 l128 0 -7 -50 -7 -50 101 0 c114 0
104 -8 122 100 6 36 13 75 15 88 l5 22 -282 0 -283 0 -90 -76z"/>
<path d="M9205 22674 l-90 -76 -17 -81 c-9 -45 -19 -103 -23 -129 l-7 -48 254
-2 253 -3 -3 -25 c-1 -14 -17 -37 -35 -52 l-32 -27 -228 -1 c-173 0 -229 -3
-232 -12 -2 -7 -6 -30 -10 -50 l-6 -38 285 0 284 0 89 76 c84 72 89 78 100
132 7 31 12 67 13 80 l0 22 -256 0 c-210 0 -255 2 -251 13 3 8 8 40 12 72 6
48 14 64 39 87 30 28 32 28 159 28 l128 0 -7 -50 -7 -50 101 0 c114 0 104 -8
122 100 6 36 13 75 15 88 l5 22 -282 0 -283 0 -90 -76z"/>
<path d="M30980 19618 l0 -2223 -1460 1460 -1460 1460 0 -2458 0 -2457 465 0
465 0 1 -42 1 -43 8 33 c11 47 17 51 87 55 65 3 76 -6 21 -17 -56 -11 -78 -32
-78 -75 0 -48 20 -65 75 -66 28 0 41 -4 38 -12 -7 -18 -90 -12 -112 9 -27 24
-31 23 -25 -10 4 -21 -1 -33 -20 -51 -18 -17 -24 -31 -20 -47 4 -16 1 -24 -14
-28 -35 -12 -41 -44 -32 -187 14 -211 13 -233 -7 -224 -10 5 -32 10 -49 12
-40 6 -64 -25 -64 -79 0 -34 -3 -38 -26 -38 -39 0 -64 18 -80 56 -16 38 -69
68 -108 61 -19 -3 -18 -5 9 -16 l30 -13 -29 -25 c-26 -22 -35 -24 -90 -19 -86
8 -196 29 -196 38 0 4 8 12 18 18 15 10 15 10 -3 6 -60 -15 -99 -17 -142 -8
-27 6 -77 16 -113 22 -36 6 -85 16 -110 21 -25 5 -70 11 -101 14 -56 4 -125
16 -339 56 -84 15 -135 20 -188 15 -78 -6 -102 -15 -142 -53 -14 -12 -92 -68
-173 -123 -81 -55 -169 -116 -195 -135 -26 -19 -92 -65 -147 -102 -54 -37
-107 -75 -117 -85 -9 -9 -50 -39 -91 -66 -76 -50 -114 -60 -262 -68 -59 -3
-174 -21 -310 -49 -123 -25 -277 -54 -400 -76 -38 -7 -78 -19 -87 -27 -15 -13
-22 -9 -61 30 -25 24 -82 62 -128 85 -188 94 -287 117 -464 110 -105 -4 -132
-9 -218 -40 -198 -72 -326 -166 -440 -324 -18 -26 -36 -42 -44 -38 -8 2 -11 0
-8 -5 3 -6 2 -10 -2 -10 -18 0 -83 -140 -107 -229 -36 -134 -40 -133 -36 7 2
72 1 74 -22 70 -20 -3 -24 -10 -28 -57 -5 -48 -10 -58 -50 -93 -49 -44 -237
-138 -385 -193 -55 -20 -102 -41 -105 -45 -8 -12 -338 -129 -505 -179 -82 -24
-110 -41 -130 -82 -21 -39 -13 -49 28 -38 17 5 91 22 162 39 143 34 409 115
440 134 11 7 58 27 105 46 106 41 121 54 55 45 -57 -8 -107 -21 -150 -41 -42
-19 -264 -76 -277 -72 -7 3 26 19 73 37 46 18 93 37 104 41 11 4 36 14 55 21
19 7 37 16 40 19 3 3 28 14 55 24 59 21 55 19 220 93 72 32 156 76 188 97 32
21 61 36 64 32 12 -12 -34 -79 -97 -140 -72 -70 -128 -101 -305 -171 -66 -26
-122 -51 -125 -54 -17 -24 -455 -147 -605 -170 l-40 -6 -3 -79 c-3 -78 -2 -80
30 -113 l33 -35 615 7 c338 4 625 11 637 16 23 8 22 9 -27 106 l-50 98 -2 122
c-3 115 -2 121 15 106 9 -9 17 -24 17 -34 0 -10 13 -47 29 -82 79 -173 199
-302 354 -382 98 -51 114 -69 61 -72 -16 0 -38 -2 -49 -2 -17 -1 -18 -3 -5
-11 14 -9 178 -13 505 -13 72 0 218 5 325 11 107 6 542 14 965 17 857 5 5268
71 5495 81 234 10 328 9 455 -5 112 -13 129 -13 250 6 72 11 164 21 205 21
443 2 989 16 983 25 -4 7 -117 8 -354 3 -352 -7 -669 0 -669 15 0 4 16 16 35
25 38 18 63 44 29 29 -10 -4 -29 -10 -42 -12 -12 -3 -25 -9 -28 -14 -3 -5 -18
-9 -35 -9 -16 0 -29 -4 -29 -10 0 -5 -8 -10 -17 -10 -15 0 -13 4 7 20 14 10
35 22 48 25 32 8 131 55 169 81 91 61 213 174 213 196 0 5 11 24 24 41 30 40
82 144 100 199 32 101 40 149 40 253 1 102 -2 119 -38 229 -76 229 -194 376
-386 482 -70 39 -139 65 -182 69 -18 2 -62 8 -98 14 -135 22 -292 7 -420 -40
-59 -22 -112 -48 -120 -59 -3 -4 -23 -19 -45 -33 -22 -15 -56 -38 -75 -51 -54
-36 -135 -129 -181 -207 -63 -108 -89 -188 -95 -293 -3 -50 -7 -97 -9 -104 -9
-25 14 -199 34 -259 25 -79 86 -203 109 -223 10 -8 28 -31 41 -50 13 -19 36
-48 50 -64 l26 -29 -33 22 c-18 13 -45 38 -60 57 -15 19 -40 49 -55 67 -16 18
-43 62 -60 100 -18 37 -35 67 -40 67 -4 0 -14 -15 -23 -33 -14 -30 -14 -38 1
-90 9 -31 20 -57 24 -57 4 0 13 -17 20 -37 53 -150 139 -233 309 -294 17 -6
32 -15 32 -20 0 -5 -96 -9 -212 -10 -117 0 -1585 -22 -3263 -48 -1677 -26
-3054 -44 -3059 -40 -4 4 10 17 32 28 22 11 42 24 44 29 1 4 23 22 48 39 87
60 195 180 219 243 7 19 24 62 38 94 14 33 25 71 25 85 0 44 10 47 105 39 48
-5 133 -10 188 -13 93 -4 387 -36 515 -56 30 -4 100 -13 155 -19 55 -6 121
-17 146 -26 44 -14 49 -20 89 -97 57 -111 60 -113 111 -98 22 7 43 10 46 8 9
-10 -137 -47 -247 -62 -63 -9 -124 -20 -135 -24 -11 -5 -51 -13 -89 -19 -75
-12 -119 -37 -124 -70 -6 -39 51 -46 280 -33 111 6 282 11 378 12 96 0 211 5
255 10 44 6 166 10 270 9 105 0 393 6 640 15 248 8 608 20 800 25 324 9 733
22 1135 35 154 5 553 17 1113 32 142 4 240 10 244 16 3 6 -5 20 -18 31 -23 20
-31 21 -169 14 -156 -8 -604 -23 -1105 -37 -170 -5 -467 -15 -660 -22 -389
-15 -855 -18 -985 -7 -47 5 -141 17 -210 28 -69 11 -168 27 -221 35 -94 14
-188 13 -259 -3 -34 -7 -35 -9 -40 -62 l-5 -55 -202 -3 c-181 -2 -203 -1 -219
15 -17 17 -10 18 162 23 l179 5 0 34 c0 33 -3 35 -60 56 -87 31 -92 34 -180
76 -83 40 -165 105 -165 133 0 17 48 46 78 46 10 0 52 -17 93 -39 99 -52 303
-120 414 -138 108 -18 171 -28 248 -42 221 -41 307 -54 367 -56 30 -2 98 -8
150 -14 96 -11 264 -7 965 20 154 6 352 13 440 15 88 2 319 9 513 15 370 13
387 16 327 55 -23 15 -65 16 -438 10 -644 -10 -727 -10 -973 -1 -127 4 -240 4
-250 0 -29 -13 68 -23 241 -24 106 -1 146 -4 138 -12 -21 -21 -940 -39 -1025
-20 -26 6 -62 10 -80 9 -18 0 -62 4 -98 11 -36 7 -90 16 -120 21 -240 39 -243
41 -251 79 -4 19 -13 38 -21 43 -8 6 -1 7 22 3 19 -4 49 -8 65 -9 17 -1 47 -8
68 -15 39 -13 73 -9 62 9 -3 5 -22 10 -42 10 -37 0 -85 12 -138 36 -43 18 -10
18 90 -2 117 -22 259 -43 334 -49 79 -6 240 -23 336 -35 240 -32 2045 -36
2045 -5 0 7 -21 37 -47 68 -27 31 -79 96 -116 146 -82 107 -181 211 -222 233
-85 46 -266 98 -338 98 -18 0 -39 5 -47 11 -39 27 198 -9 315 -49 71 -23 89
-35 158 -101 69 -66 163 -179 208 -251 9 -14 30 -40 46 -57 30 -32 34 -33 110
-33 127 0 361 13 373 20 8 5 6 21 -5 56 -8 27 -19 63 -24 79 -5 17 -19 87 -31
156 -17 99 -21 150 -16 230 3 57 5 114 6 126 1 34 45 157 73 206 15 24 53 74
87 111 33 36 60 68 60 71 0 9 -59 -18 -208 -93 -463 -234 -648 -323 -699 -336
-145 -36 -180 -38 -408 -24 -121 7 -258 13 -305 13 -135 1 -304 17 -575 56
-44 6 -107 12 -140 14 -33 1 -85 8 -115 14 -108 22 -222 40 -380 62 -47 6
-177 11 -290 12 -215 0 -357 -15 -508 -52 -42 -11 -128 -23 -189 -26 -79 -5
-113 -11 -113 -19 0 -21 77 -203 109 -259 34 -59 106 -135 169 -179 57 -40 46
-47 -17 -12 -111 60 -169 129 -255 300 -64 131 -91 165 -151 194 -36 18 -59
21 -120 18 -41 -2 -75 -1 -75 2 1 27 26 32 295 60 135 14 351 46 365 55 30 19
263 36 470 34 228 -2 390 -16 652 -58 70 -12 145 -21 165 -21 21 0 107 -11
191 -25 293 -48 457 -73 492 -74 19 0 88 -6 153 -12 108 -11 140 -9 124 7 -11
12 -266 55 -297 51 -18 -2 -72 6 -295 43 -160 27 -227 36 -435 60 -47 5 -170
21 -275 35 -237 32 -532 41 -770 25 -93 -7 -172 -16 -175 -20 -3 -4 -97 -20
-210 -34 -196 -26 -236 -32 -367 -57 -68 -13 -151 -49 -176 -77 -17 -19 -17
-20 23 -36 46 -18 80 -21 80 -6 0 15 126 12 164 -4 42 -17 78 -69 156 -224 54
-108 69 -128 142 -197 45 -43 96 -83 113 -90 16 -7 43 -18 59 -24 16 -7 25
-16 20 -20 -5 -5 -128 -11 -273 -14 -258 -6 -264 -6 -300 -30 -37 -25 -38 -26
-31 -75 4 -32 16 -63 34 -86 27 -36 159 -136 180 -136 6 0 22 -9 36 -20 38
-30 1 -26 -63 6 -180 92 -265 235 -185 315 40 40 101 49 323 49 150 0 195 3
195 13 0 6 -32 32 -72 57 -92 59 -143 120 -212 259 -69 138 -88 167 -127 187
-32 16 -107 20 -157 9 -66 -14 -151 31 -137 74 6 21 127 88 185 102 128 32
265 54 430 69 69 6 139 16 155 21 51 18 320 29 560 25 254 -5 336 -13 649 -60
55 -8 103 -13 107 -10 8 4 60 -3 389 -56 107 -17 231 -35 275 -40 75 -8 142
-18 275 -41 111 -19 160 -22 160 -10 0 12 -8 14 -120 31 -77 11 -129 20 -236
40 -33 7 -69 11 -80 9 -19 -2 -74 4 -176 21 -145 25 -177 30 -243 40 -38 6
-97 16 -130 21 -33 6 -87 12 -120 14 -33 1 -172 17 -310 35 -216 28 -279 32
-462 31 -127 0 -213 3 -213 9 0 15 50 19 310 25 193 5 282 2 420 -11 96 -10
196 -18 222 -20 63 -2 224 -25 533 -75 66 -10 134 -18 150 -18 26 1 387 -55
545 -84 30 -5 71 -10 90 -10 34 -1 275 86 285 103 3 4 -39 18 -93 30 -53 12
-112 26 -131 31 -19 4 -38 6 -42 4 -4 -3 -90 13 -191 36 -100 22 -201 44 -223
49 -22 5 -71 16 -110 25 -38 8 -90 18 -114 20 -37 4 -213 39 -331 65 -147 33
-304 60 -410 70 -69 6 -136 13 -150 15 -35 5 -180 -13 -242 -29 -105 -29 -163
-48 -178 -60 -8 -7 -55 -27 -105 -45 -49 -18 -111 -41 -137 -52 -26 -10 -54
-19 -63 -19 -17 0 -65 -24 -95 -46 -8 -6 -64 -14 -124 -18 -60 -4 -114 -10
-120 -14 -6 -4 -63 -12 -126 -17 -149 -14 -288 -2 -350 30 -59 31 -65 50 -14
41 22 -3 125 -8 229 -12 162 -5 198 -3 245 11 30 10 93 21 140 24 48 4 67 8
43 9 -41 2 -63 22 -24 22 20 0 95 30 261 105 58 26 132 57 165 69 33 12 69 27
81 33 28 16 135 29 114 14 -8 -6 -39 -15 -67 -21 -29 -6 -53 -16 -53 -21 0 -5
-7 -9 -15 -9 -8 0 -58 -22 -112 -48 -54 -27 -142 -66 -195 -87 -54 -21 -98
-42 -98 -47 0 -11 26 -10 48 1 15 7 72 32 147 62 31 12 176 79 215 98 49 25
230 62 298 61 31 0 125 -4 207 -8 83 -4 152 -5 155 -2 3 3 57 6 121 7 85 2
145 -3 225 -18 60 -12 132 -25 161 -29 28 -5 55 -10 60 -13 4 -3 43 -8 85 -11
42 -3 117 -15 165 -25 48 -11 140 -29 203 -41 63 -11 129 -25 145 -29 38 -11
126 -25 142 -22 7 1 70 -10 140 -25 70 -14 162 -33 203 -40 41 -8 94 -19 117
-25 44 -12 84 -5 67 11 -8 7 -178 47 -299 70 -22 4 -74 15 -115 23 -41 9 -104
19 -140 22 -36 3 -81 10 -100 15 -19 5 -64 14 -100 20 -36 6 -83 15 -105 20
-22 5 -67 14 -100 20 -33 7 -80 16 -105 21 -25 5 -81 13 -125 19 -44 6 -105
15 -135 21 -30 5 -77 14 -105 18 -162 28 -219 44 -325 96 l-55 26 50 -5 c60
-7 108 -15 280 -49 137 -26 270 -47 295 -45 13 1 306 -53 365 -68 51 -12 254
-47 285 -49 19 -2 52 -6 73 -10 53 -11 48 9 -10 35 -27 12 -55 23 -64 25 -8 2
-112 53 -230 113 -328 168 -422 215 -470 237 -24 12 -72 36 -106 55 -34 19
-65 32 -67 29 -3 -3 6 -48 20 -99 26 -100 30 -157 7 -107 -7 15 -17 37 -22 50
-35 88 -67 168 -81 202 -36 85 -42 106 -36 112 4 4 78 -28 165 -72 88 -43 161
-77 163 -76 3 3 71 -32 233 -119 154 -83 410 -212 428 -216 18 -3 221 -104
427 -212 58 -30 127 -61 153 -69 45 -13 51 -13 110 10 34 14 95 37 135 52 39
16 72 33 72 40 0 6 -15 16 -32 22 -18 6 -71 25 -118 43 -47 17 -97 33 -113 35
-15 2 -32 7 -38 11 -6 3 -66 26 -133 49 -66 24 -193 70 -281 104 -88 34 -173
63 -189 66 -16 3 -50 14 -75 24 -101 41 -206 81 -214 81 -4 0 -26 9 -50 20
-60 27 -288 112 -312 115 -21 3 -123 41 -265 98 -83 34 -86 36 -114 91 -15 31
-34 56 -41 56 -8 0 -23 12 -34 27 -19 23 -19 28 -7 42 12 14 76 135 76 144 0
2 -33 7 -74 10 -40 4 -80 9 -90 13 -15 6 -16 92 -16 1083 l0 1076 1450 -1450
1450 -1450 0 -76 0 -76 83 -7 c45 -3 118 -13 162 -20 44 -8 83 -12 87 -10 4 3
20 -4 35 -14 16 -11 60 -38 100 -60 39 -23 95 -62 124 -87 l52 -44 268 1 c233
2 267 4 267 18 -1 8 11 50 25 93 15 42 27 86 27 97 0 11 4 28 10 38 5 9 32 80
60 157 28 77 57 156 65 175 15 39 43 115 74 203 11 31 17 57 13 58 -4 1 -42 0
-84 -1 -106 -2 -178 15 -239 56 -59 42 -79 39 -79 -11 0 -44 -14 -45 -26 -2
-9 30 -12 32 -57 32 -26 -1 -182 -2 -346 -3 -296 -2 -300 -2 -306 -23 -4 -12
-3 -24 2 -28 5 -3 8 -120 8 -259 0 -140 2 -257 5 -261 3 -4 66 -13 140 -20
435 -38 394 -37 423 -15 14 10 27 23 27 28 0 5 6 17 14 25 7 9 21 38 31 64 22
60 40 73 32 25 -13 -82 -64 -155 -123 -179 -27 -11 -548 -30 -567 -21 -4 2 -3
10 3 17 8 10 7 16 -4 22 -12 6 -16 31 -18 107 l-3 98 -127 -1 c-109 -2 -128 0
-128 13 0 21 26 26 144 29 60 1 101 6 103 13 2 7 -36 11 -118 12 -67 0 -124 4
-127 7 -16 16 24 24 128 27 92 2 115 6 118 18 2 13 -16 15 -123 12 -69 -2
-125 1 -125 5 0 26 29 33 131 33 82 0 109 3 119 15 7 8 9 15 4 16 -5 0 -61 0
-126 -1 -72 -1 -119 3 -123 10 -11 17 25 24 130 25 88 0 114 6 115 25 0 3 -54
4 -120 2 -100 -3 -120 -1 -120 11 0 22 23 27 129 27 103 0 121 7 121 47 0 23
-1 23 -135 23 l-135 0 0 3395 0 3395 -585 0 -585 0 0 -2222z m-1930 -4426 c0
-13 -39 -46 -46 -40 -8 9 19 48 33 48 7 0 13 -4 13 -8z m260 -42 c0 -6 -30
-10 -70 -10 -40 0 -70 4 -70 10 0 6 30 10 70 10 40 0 70 -4 70 -10z m27 -76
c22 -17 38 -50 79 -170 28 -82 58 -166 67 -188 9 -21 17 -43 17 -48 0 -24 -24
12 -85 128 -108 202 -132 220 -289 208 -80 -6 -89 -9 -112 -37 -25 -29 -25
-30 -19 -186 8 -193 8 -197 45 -216 35 -18 41 -41 8 -30 -24 7 -79 18 -158 32
-45 8 -45 8 -48 52 -2 28 1 47 9 52 15 9 57 -11 83 -40 27 -29 46 -27 46 7 0
15 -7 108 -15 207 -18 227 -19 212 6 225 27 15 164 29 261 27 61 -2 83 -6 105
-23z m3802 -65 c29 -40 19 -50 -17 -16 l-27 26 -145 -10 c-159 -10 -394 -9
-413 3 -24 14 22 18 268 21 138 1 264 3 281 5 24 2 35 -5 53 -29z m-46 -57 c9
-8 17 -22 17 -30 0 -13 -3 -12 -19 2 -18 16 -46 18 -290 16 -182 0 -271 3
-271 10 0 5 1 11 3 12 5 4 522 13 532 9 6 -2 18 -11 28 -19z m-3859 -45 c18
-13 61 -161 51 -177 -8 -13 -111 -13 -136 0 -33 18 -21 27 31 22 79 -7 81 -4
60 73 -21 77 -24 82 -65 88 -28 4 -28 4 6 6 19 0 43 -5 53 -12z m3807 -14 c16
-8 29 -18 29 -23 0 -12 -27 -19 -37 -9 -5 5 -119 10 -253 11 -153 2 -245 7
-245 13 0 18 56 22 268 22 163 1 215 -3 238 -14z m-31 -74 c7 -11 10 -22 8
-23 -2 -1 -46 1 -98 5 -52 4 -160 5 -239 3 -79 -2 -148 -1 -153 2 -5 3 -4 12
3 20 9 11 55 14 240 14 221 0 229 -1 239 -21z m-5409 -65 c107 -19 217 -37
244 -39 28 -2 91 -11 140 -20 50 -9 142 -25 205 -36 63 -12 137 -25 163 -29
26 -5 56 -11 65 -14 9 -3 55 -8 102 -11 47 -4 99 -10 115 -15 29 -8 92 -20
198 -40 141 -26 186 -36 267 -58 91 -26 162 -51 173 -61 10 -10 -186 -23 -220
-15 -26 7 -26 7 -5 15 29 11 28 37 0 48 -13 5 -57 14 -98 20 -67 11 -192 33
-335 61 -27 5 -81 12 -120 15 -38 4 -88 10 -110 15 -22 5 -74 14 -115 20 -41
7 -118 20 -170 30 -122 23 -230 39 -255 38 -11 0 -49 4 -85 10 -195 32 -252
41 -318 47 -101 9 -144 -7 -87 -33 47 -21 27 -30 -55 -25 -46 4 -90 2 -103 -4
-37 -17 -127 -42 -127 -35 0 4 24 18 52 32 29 14 70 42 92 63 74 68 120 70
387 21z m5366 -1 c3 -8 -53 -12 -209 -15 -117 -2 -217 -1 -222 3 -4 4 -5 12
-1 18 9 16 427 10 432 -6z m-4321 -119 c-25 -18 -36 -18 -36 1 0 19 32 37 45
24 7 -7 4 -15 -9 -25z m-1263 -10 c18 -9 42 -26 54 -37 l23 -20 34 39 33 38
114 -22 c63 -13 155 -27 204 -32 117 -11 228 -30 238 -39 4 -5 -2 -25 -14 -45
-11 -20 -22 -51 -24 -69 -1 -17 -9 -74 -16 -126 -12 -92 -13 -94 -45 -107 -19
-8 -46 -14 -62 -14 -16 0 -47 -6 -69 -14 -44 -15 -307 -32 -347 -22 -17 4 -33
21 -46 47 -12 22 -36 57 -55 78 -28 31 -34 46 -37 92 -3 51 -5 54 -30 57 -21
3 -27 0 -22 -11 6 -16 3 -17 -73 -37 -24 -6 -43 -15 -43 -20 0 -6 -7 -10 -16
-10 -26 0 -94 -22 -94 -31 0 -7 35 -14 114 -24 22 -2 42 -9 45 -13 3 -5 16
-12 28 -16 15 -5 27 -21 34 -47 14 -46 9 -54 -25 -45 -27 7 -56 51 -56 87 0
17 -4 20 -22 15 -13 -3 -49 -6 -81 -6 l-57 0 16 -25 c21 -32 16 -37 -27 -25
-18 6 -47 10 -62 10 -22 0 -31 7 -42 34 -13 32 -37 56 -80 81 -31 18 -10 68
58 138 64 67 110 95 212 133 76 27 191 31 238 8z m957 -113 c63 -11 140 -23
170 -26 71 -7 259 -41 267 -48 6 -7 -23 -14 -84 -20 -32 -4 -40 -2 -36 9 3 8
-4 15 -19 18 -75 16 -107 20 -143 21 -22 1 -74 9 -115 17 -70 15 -81 15 -160
-2 -47 -11 -97 -19 -112 -19 -30 -1 -29 9 2 57 18 27 44 26 230 -7z m3965
-172 c33 -6 74 -12 90 -14 106 -13 296 -147 395 -280 71 -96 136 -255 150
-370 8 -64 -3 -202 -21 -275 -15 -57 -75 -184 -96 -202 -14 -11 -13 -8 2 21
38 74 66 177 72 266 7 108 -4 240 -21 258 -7 6 -18 33 -25 60 -31 110 -141
265 -244 342 -63 48 -171 105 -208 110 -13 2 -60 10 -104 19 -122 24 -206 20
-340 -17 -66 -18 -165 -67 -203 -102 -21 -18 -56 -49 -80 -70 -86 -76 -199
-257 -207 -332 -1 -15 -10 -64 -20 -108 -14 -64 -16 -103 -11 -195 8 -139 -4
-137 -29 3 -13 72 -16 118 -10 170 4 40 9 93 11 120 4 61 48 164 104 247 50
74 164 191 209 215 17 8 31 20 31 25 0 14 146 80 224 100 82 22 238 26 331 9z
m-5500 -12 c11 -2 -16 -10 -60 -20 -44 -10 -96 -22 -115 -27 -47 -13 -57 2
-22 32 26 21 36 24 103 20 41 -1 83 -4 94 -5z m-6 -86 c14 -9 -52 -17 -203
-24 -67 -3 -68 -3 -46 15 18 15 41 18 129 18 58 0 112 -4 120 -9z m-1819 -56
c128 -34 290 -123 359 -198 61 -65 111 -127 111 -138 0 -4 10 -19 23 -32 23
-26 48 -85 74 -177 23 -80 22 -296 -1 -375 -9 -33 -19 -72 -22 -88 -16 -108
-206 -330 -344 -401 -75 -39 -99 -39 -32 0 79 46 182 142 236 219 46 66 88
147 92 179 2 12 10 53 18 91 45 205 -2 437 -120 589 -79 101 -120 134 -257
206 -120 63 -216 83 -362 77 -104 -4 -129 -9 -190 -35 -155 -65 -247 -128
-314 -211 -48 -62 -127 -220 -147 -296 -36 -136 -28 -319 18 -405 10 -19 18
-38 18 -42 0 -21 55 -122 94 -175 48 -64 139 -153 156 -153 5 0 10 -5 10 -10
0 -17 -51 15 -113 70 -67 61 -132 149 -177 240 -17 36 -36 74 -42 85 -37 67
-51 296 -24 397 23 84 47 146 75 197 14 25 26 52 27 59 3 20 81 108 137 155
70 59 163 113 234 137 32 11 67 24 78 30 67 33 268 36 385 5z m2099 2 c23 -3
40 -12 50 -28 8 -13 26 -36 40 -52 16 -17 21 -31 15 -37 -10 -10 -171 2 -248
20 -35 8 -81 6 -184 -5 -75 -8 -177 -19 -227 -25 -49 -5 -193 -12 -320 -15
-324 -8 -689 -40 -737 -66 -12 -6 -25 -6 -38 1 -26 14 -25 29 3 34 38 8 249
46 317 57 64 11 111 21 180 40 62 17 282 42 520 60 80 6 181 14 225 19 76 7
332 5 404 -3z m5256 -128 c33 -12 65 -24 72 -25 24 -4 120 -85 154 -131 20
-26 54 -82 75 -123 35 -67 39 -84 43 -164 8 -220 -109 -404 -331 -517 -59 -30
-201 -37 -293 -14 -108 27 -172 63 -252 141 -96 93 -140 183 -149 306 -4 51
-2 106 6 143 6 33 13 70 15 82 2 11 16 42 32 68 15 25 34 57 41 70 34 64 189
165 286 185 75 16 234 5 301 -21z m-7390 -141 c56 -17 153 -74 198 -117 50
-46 114 -140 133 -194 21 -58 29 -183 15 -245 -41 -194 -130 -302 -305 -372
-49 -19 -78 -24 -165 -24 -58 0 -120 5 -136 11 -35 13 -57 20 -68 22 -38 5
-136 83 -186 149 -20 26 -43 55 -52 65 -50 56 -75 252 -45 362 29 111 114 224
221 294 22 14 42 28 45 31 9 10 84 30 140 38 58 8 139 0 205 -20z m773 1 c84
-6 161 -9 171 -6 10 2 81 -2 157 -9 109 -11 177 -12 314 -3 96 5 184 14 195
19 11 5 68 10 128 12 120 4 111 -8 -18 -22 -44 -5 -125 -16 -180 -23 -55 -8
-172 -20 -260 -27 -88 -6 -191 -16 -230 -21 -184 -25 -314 -39 -357 -39 -41 0
-48 -3 -48 -20 0 -34 -13 -23 -58 48 -23 37 -50 78 -59 91 l-17 24 54 -6 c30
-4 124 -12 208 -18z m-1648 -87 c0 -5 -7 -17 -16 -28 -8 -10 -14 -14 -11 -9 2
6 7 18 10 28 7 17 17 23 17 9z m2316 -37 c18 -24 13 -79 -8 -83 -13 -2 -17 5
-20 35 -2 25 -8 38 -18 39 -8 1 -32 2 -52 2 -21 1 -38 6 -38 11 0 26 117 23
136 -4z m-2355 -42 c-12 -20 -14 -14 -5 12 4 9 9 14 11 11 3 -2 0 -13 -6 -23z
m2315 6 c12 -20 -20 -29 -116 -30 -52 0 -147 -5 -210 -11 -63 -5 -176 -13
-250 -17 -74 -5 -144 -10 -155 -12 -15 -3 -21 2 -23 19 -3 18 1 22 25 23 15 0
82 5 148 11 111 9 345 21 507 26 40 1 70 -2 74 -9z m-2359 -134 c-8 -36 -12
-44 -15 -27 -3 21 16 87 24 80 1 -2 -3 -26 -9 -53z m1652 -60 c1 -16 -1 -17
-9 -5 -5 8 -9 29 -9 45 1 29 1 29 9 5 4 -14 8 -34 9 -45z m-1669 -47 c0 -29
-4 -48 -9 -42 -8 8 -3 94 5 94 2 0 4 -23 4 -52z m0 -84 c0 -8 -4 -12 -10 -9
-5 3 -10 10 -10 16 0 5 5 9 10 9 6 0 10 -7 10 -16z m1675 -14 c3 -5 1 -10 -4
-10 -6 0 -11 5 -11 10 0 6 2 10 4 10 3 0 8 -4 11 -10z m-1639 -217 c14 -30 24
-57 21 -59 -3 -3 -16 19 -29 48 -28 60 -54 191 -41 210 5 8 11 -18 16 -66 5
-50 17 -98 33 -133z m2345 175 c39 -11 43 -19 39 -68 -3 -34 -8 -40 -26 -33
-11 4 -13 14 -9 34 8 36 -22 54 -75 45 -42 -6 -55 1 -39 21 14 16 59 17 110 1z
m-6 -58 c0 -13 -48 -16 -345 -22 -202 -5 -352 -12 -362 -18 -15 -9 -18 -6 -18
18 0 16 2 31 4 33 3 2 166 4 363 4 312 0 358 -2 358 -15z m5353 -67 c40 -62
105 -116 192 -159 111 -56 162 -68 285 -68 158 0 192 16 359 163 33 30 69 68
80 83 10 16 21 27 24 24 12 -12 -142 -188 -218 -249 -12 -10 -50 -32 -84 -47
-172 -80 -363 -50 -510 78 -33 29 -63 52 -67 52 -16 0 -99 139 -99 166 0 12
11 0 38 -43z m-3543 -63 c44 -5 130 -17 190 -26 61 -8 130 -15 155 -15 25 0
97 -7 160 -14 260 -31 314 -35 525 -40 121 -3 308 -9 415 -14 107 -5 207 -7
223 -4 15 3 98 1 185 -3 l157 -9 -140 -5 c-389 -14 -1029 1 -1300 30 -49 6
-139 14 -200 19 -60 5 -139 14 -175 20 -36 7 -92 16 -125 22 -102 16 -205 42
-205 50 0 5 12 7 28 4 15 -2 63 -9 107 -15z m-2881 -75 c-40 -78 -154 -187
-238 -226 -116 -54 -254 -58 -363 -9 -27 12 -54 23 -60 24 -20 3 -104 69 -115
89 -17 32 -1 31 39 -2 62 -51 158 -76 293 -75 105 1 122 3 198 33 96 38 180
102 232 179 19 28 36 49 38 47 2 -2 -9 -29 -24 -60z m-1434 12 c0 -30 -74 -77
-155 -98 -127 -33 -197 -49 -300 -69 -33 -7 -73 -16 -90 -22 -43 -13 -196 -21
-168 -9 12 5 50 13 85 17 35 3 77 12 93 19 17 7 75 22 130 35 139 31 271 75
330 109 56 33 75 37 75 18z m219 -49 c11 -24 32 -63 47 -87 15 -24 22 -41 16
-37 -11 6 -92 148 -92 160 0 16 11 2 29 -36z m2896 -49 c46 -22 79 -55 69 -71
-3 -4 -14 -13 -25 -19 -18 -9 -19 -8 -8 9 18 29 5 48 -45 71 -25 11 -46 22
-46 25 0 9 8 7 55 -15z m-3144 -216 c11 -11 -230 -21 -741 -32 -267 -5 -308
-4 -334 10 -73 39 -60 40 513 36 349 -2 556 -8 562 -14z"/>
<path d="M27100 14380 c0 -5 6 -10 14 -10 8 0 18 5 21 10 3 6 -3 10 -14 10
-12 0 -21 -4 -21 -10z"/>
<path d="M26992 14354 c-26 -18 -29 -56 -6 -78 18 -18 30 -20 39 -7 3 6 -4 15
-15 21 -30 16 -23 54 10 58 14 2 29 8 35 13 16 16 -39 10 -63 -7z"/>
<path d="M32060 13980 c-56 -12 -134 -51 -181 -89 -39 -32 -87 -97 -94 -127
-3 -10 -12 -44 -21 -74 -19 -66 -14 -173 10 -220 9 -18 16 -39 16 -46 0 -8 17
-21 38 -31 20 -9 41 -19 45 -21 5 -2 -3 18 -17 45 -53 101 -54 200 -1 316 75
163 283 229 451 144 60 -30 169 -133 184 -173 34 -88 25 -216 -21 -290 -12
-19 -19 -37 -17 -39 12 -12 76 48 98 91 21 42 25 63 25 139 0 84 -2 94 -33
147 -33 57 -127 169 -140 166 -4 -1 -37 13 -74 30 -74 35 -188 48 -268 32z"/>
<path d="M32035 13859 c-67 -26 -109 -66 -148 -141 -28 -56 -32 -72 -32 -144
0 -69 4 -89 29 -137 51 -101 137 -156 255 -164 130 -9 209 26 278 121 77 108
84 268 14 343 -118 129 -265 174 -396 122z m185 -77 c0 -35 26 -72 50 -72 10
0 28 12 40 27 14 18 24 23 31 16 6 -6 3 -18 -11 -35 -11 -15 -20 -38 -20 -53
0 -26 2 -27 38 -21 20 4 46 10 57 13 18 5 19 4 5 -12 -8 -10 -30 -24 -47 -32
-58 -24 -38 -73 29 -73 21 0 38 -4 38 -9 0 -12 -36 -21 -82 -21 -48 0 -50 -21
-8 -70 41 -49 37 -56 -14 -26 -39 23 -48 25 -71 14 -24 -11 -25 -15 -19 -55 8
-52 -1 -55 -20 -8 -10 22 -24 37 -40 41 -31 7 -44 -1 -57 -33 -12 -32 -30 -20
-23 17 5 24 2 31 -24 44 -28 14 -32 14 -57 -5 -34 -27 -41 -20 -14 14 13 17
18 34 14 47 -7 21 -12 23 -62 20 -18 -1 -33 3 -33 9 0 6 15 14 33 19 22 6 33
15 35 31 4 27 -14 51 -39 51 -11 0 -19 5 -19 10 0 6 15 10 34 8 34 -2 66 15
66 35 0 6 -10 21 -22 34 -27 29 -19 40 12 13 28 -24 30 -24 58 -4 22 15 30 44
12 44 -5 0 -10 9 -10 21 0 18 5 15 34 -16 33 -35 74 -45 69 -17 -4 18 15 62
27 62 5 0 10 -12 10 -28z"/>
<path d="M32116 13691 c-4 -6 -16 -11 -26 -11 -29 0 -70 -56 -70 -97 0 -30 8
-43 47 -80 43 -39 52 -43 99 -43 40 0 55 5 72 23 23 25 42 76 42 113 0 24 -64
94 -85 94 -7 0 -26 3 -43 6 -17 4 -32 1 -36 -5z m110 -48 c13 -16 24 -36 24
-45 0 -13 -7 -10 -29 13 -22 21 -39 29 -65 29 -25 0 -36 4 -36 15 0 11 11 15
41 15 33 0 47 -6 65 -27z m-18 -67 c5 -26 -7 -34 -57 -37 -56 -4 -64 13 -19
41 39 24 71 23 76 -4z"/>
<path d="M24705 13853 c-40 -5 -69 -20 -137 -71 -63 -47 -103 -94 -139 -162
-45 -85 -25 -330 26 -330 18 0 19 14 4 41 -19 36 -29 128 -19 181 15 75 48
134 114 201 80 81 127 101 241 103 68 2 90 5 90 15 0 22 -92 34 -180 22z"/>
<path d="M24715 13760 c-11 -4 -36 -14 -55 -21 -45 -17 -126 -101 -153 -159
-17 -34 -22 -65 -22 -125 0 -72 3 -86 34 -143 42 -77 61 -93 162 -132 133 -51
238 -36 327 48 70 65 97 127 96 222 -1 146 -76 246 -227 301 -54 20 -127 24
-162 9z m85 -119 c0 -5 7 -17 16 -26 15 -14 18 -14 40 0 30 19 38 19 30 -1
-10 -27 12 -54 44 -54 30 0 40 -13 20 -25 -18 -11 -11 -47 10 -52 24 -6 25
-16 5 -33 -8 -7 -15 -18 -15 -25 0 -7 7 -15 15 -19 26 -10 16 -25 -17 -28 -30
-3 -33 -6 -31 -34 3 -30 1 -31 -35 -30 -31 1 -37 -3 -40 -21 -4 -28 -18 -29
-34 -3 -15 24 -36 25 -65 5 -21 -14 -22 -14 -25 12 -3 25 -7 28 -40 28 -36 0
-37 1 -35 35 2 29 -2 36 -20 38 -27 4 -30 17 -7 26 13 5 15 15 11 41 -3 19 -1
37 4 40 5 4 9 15 9 26 0 12 7 19 19 19 19 0 36 25 32 47 -1 8 9 10 33 6 28 -4
36 -1 45 16 12 21 31 29 31 12z"/>
<path d="M24729 13570 c-37 -20 -69 -70 -69 -109 0 -38 28 -89 57 -104 72 -37
120 -29 173 28 48 51 26 143 -43 185 -40 25 -72 25 -118 0z m82 -100 c20 0 8
-38 -14 -42 -32 -6 -47 1 -47 22 0 20 17 31 38 24 8 -2 18 -4 23 -4z"/>
<path d="M25080 13714 c0 -4 14 -29 31 -56 38 -59 51 -102 56 -195 5 -81 -20
-172 -64 -230 -13 -18 -23 -35 -23 -38 1 -13 -70 -63 -120 -86 -47 -20 -71
-24 -161 -24 -58 0 -117 5 -130 11 -82 38 -101 44 -97 32 7 -21 108 -65 181
-79 84 -15 173 -1 256 41 51 26 146 100 128 100 -4 0 6 18 22 41 44 60 64 139
59 227 -4 59 -12 87 -43 148 -21 41 -51 84 -67 95 -15 11 -28 17 -28 13z"/>
<path d="M25046 13215 c-11 -8 -17 -17 -14 -20 2 -3 13 4 23 15 21 23 18 25
-9 5z"/>
<path d="M9537 21149 c-638 -19 -1176 -65 -1772 -150 -1118 -159 -1724 -282
-2215 -447 -642 -217 -1063 -511 -1344 -939 -155 -237 -266 -538 -309 -838
l-13 -90 -577 -3 -577 -2 0 995 0 995 -635 0 -635 0 0 -995 0 -995 -202 0
-203 0 -524 -423 -524 -422 726 -3 727 -2 0 -1405 0 -1405 635 0 635 0 0 1405
0 1405 594 0 593 0 18 -92 c27 -146 89 -379 144 -548 80 -242 67 -233 130 -88
357 817 901 1512 1576 2013 488 364 1048 624 1815 844 1132 324 1741 426 2880
482 344 17 2111 23 2797 10 1478 -28 2926 -79 5458 -191 2168 -96 2464 -105
2433 -75 -35 36 -1609 273 -2853 430 -2250 284 -4182 454 -5870 515 -734 26
-2323 37 -2908 19z"/>
<path d="M9665 20253 c-474 -43 -1442 -242 -2084 -428 -446 -129 -899 -308
-1193 -470 -505 -279 -877 -558 -1081 -810 -31 -38 -99 -117 -152 -175 -260
-286 -551 -733 -795 -1220 -123 -244 -175 -368 -233 -545 -195 -598 -368
-1688 -457 -2885 -23 -297 -37 -806 -26 -883 20 -131 41 -23 120 608 74 592
111 854 161 1140 188 1091 429 1676 730 1775 69 23 162 15 307 -26 165 -46
242 -50 308 -14 104 58 117 119 100 457 -18 339 -4 534 56 812 132 616 431
1116 885 1481 235 189 542 364 815 464 231 86 526 151 799 177 175 17 881 1
1151 -26 l52 -5 58 73 c87 108 218 240 298 302 82 62 218 132 324 166 39 13
72 27 72 31 0 8 -134 8 -215 1z"/>
<path d="M24210 20055 c-678 -70 -1285 -386 -1733 -904 -281 -324 -491 -734
-581 -1136 -54 -242 -71 -385 -71 -605 0 -528 135 -1001 409 -1437 255 -406
636 -752 1068 -969 568 -285 1218 -355 1853 -198 357 88 740 282 1025 517 193
160 410 400 537 593 77 119 71 107 162 289 108 218 161 363 214 590 101 432
83 928 -49 1375 -182 614 -586 1146 -1127 1486 -213 134 -414 225 -682 307
-292 90 -692 126 -1025 92z m665 -564 c223 -39 340 -75 513 -157 145 -68 212
-109 347 -210 189 -142 354 -317 494 -524 43 -63 89 -135 103 -160 14 -25 40
-71 58 -103 45 -79 37 -96 -58 -120 -69 -18 -139 -58 -175 -101 -9 -11 -28
-44 -41 -72 -22 -46 -29 -52 -73 -65 -104 -29 -206 -15 -348 51 -202 94 -311
136 -470 183 -250 75 -470 107 -723 107 -167 0 -389 -22 -537 -54 -173 -37
-402 -113 -555 -184 -248 -114 -283 -125 -395 -121 -98 5 -124 19 -164 92 -51
91 -111 138 -203 157 -58 11 -88 30 -88 54 0 23 89 195 146 284 184 282 403
493 695 669 344 207 670 290 1144 292 175 1 242 -3 330 -18z m510 -1828 c0 -7
-56 -72 -126 -145 -69 -73 -145 -155 -169 -183 -120 -135 -148 -149 -299 -146
-112 1 -131 4 -131 20 0 5 46 53 102 107 56 54 136 133 178 174 190 185 175
174 238 181 93 10 207 6 207 -8z m-344 -12 c-16 -30 -116 -116 -158 -137 -34
-17 -66 -18 -338 -19 -201 0 -313 -5 -340 -13 -46 -13 -158 -104 -226 -184
-67 -77 -131 -109 -233 -115 -44 -3 -96 -1 -115 4 l-33 9 187 182 c220 215
293 271 368 282 29 4 242 8 475 9 410 1 422 0 413 -18z m-201 -201 c0 -10 -69
-92 -100 -118 -8 -7 -33 -22 -55 -34 -37 -20 -52 -21 -225 -19 -174 2 -187 1
-212 -18 -14 -12 -29 -21 -32 -21 -4 0 -24 -11 -46 -25 -49 -31 -101 -39 -186
-30 l-67 7 94 94 c92 93 174 157 214 167 41 10 615 7 615 -3z m1444 -131 c59
-27 75 -31 134 -27 48 2 84 11 122 30 30 15 56 25 59 23 8 -8 -20 -268 -40
-370 -61 -313 -223 -666 -418 -910 -253 -316 -587 -547 -975 -676 -146 -49
-157 -47 -168 22 -11 76 -38 121 -123 209 -45 47 -90 99 -99 117 -32 64 -17
141 56 288 85 171 185 281 363 400 128 87 159 121 226 251 108 212 263 394
389 459 25 12 81 30 125 40 99 21 155 53 198 110 28 38 57 62 78 64 4 1 37
-13 73 -30z m-3814 -4 c34 -14 79 -25 105 -25 30 0 62 9 93 25 50 27 100 32
133 14 11 -6 37 -28 56 -50 49 -54 105 -85 197 -109 111 -28 189 -74 277 -160
80 -79 189 -233 261 -372 51 -99 119 -169 218 -227 86 -51 236 -195 293 -282
20 -31 58 -99 84 -150 43 -85 47 -101 48 -164 0 -84 -12 -104 -128 -215 -84
-80 -94 -94 -112 -179 -6 -30 -18 -59 -27 -64 -33 -22 -359 106 -546 213 -280
160 -526 400 -724 705 -112 173 -206 399 -268 645 -24 96 -57 378 -47 404 8
21 17 20 87 -9z"/>
<path d="M10410 17440 l0 -2040 585 0 585 0 0 752 0 753 803 -802 c751 -751
864 -859 1782 -1707 l979 -906 824 0 c453 0 822 4 820 8 -1 5 -484 455 -1073
999 -1010 935 -1112 1033 -1810 1733 -584 585 -737 744 -725 751 8 5 43 26 77
47 143 85 294 218 391 344 61 80 136 207 172 295 119 284 125 676 17 964 -136
362 -452 668 -815 789 -185 61 -154 60 -1439 60 l-1173 0 0 -2040z m2266 854
c50 -37 68 -70 68 -124 0 -58 -22 -94 -75 -125 -33 -19 -55 -20 -561 -23
l-528 -3 0 151 0 151 534 -3 c522 -3 535 -3 562 -24z"/>
<path d="M14990 17440 l0 -2040 568 -2 c312 -2 1605 -2 2875 0 l2307 2 0 580
0 580 -895 0 c-492 0 -895 3 -895 7 0 5 654 662 1452 1460 l1453 1453 -2308 0
-2307 0 0 -580 0 -580 895 -2 895 -3 -1435 -1435 -1435 -1435 0 2018 0 2017
-585 0 -585 0 0 -2040z"/>
<path d="M7610 19454 c-14 -2 -74 -11 -135 -20 -106 -15 -284 -61 -410 -104
-100 -35 -314 -144 -414 -211 -51 -35 -101 -68 -109 -74 -34 -22 -169 -142
-231 -205 -232 -237 -407 -531 -503 -845 -38 -125 -61 -240 -84 -427 -16 -131
-17 -162 -5 -280 32 -334 106 -597 239 -853 132 -253 370 -528 603 -695 261
-187 491 -291 799 -359 586 -131 1198 6 1700 377 102 76 332 309 405 410 255
354 388 725 411 1149 6 115 -7 314 -26 397 -5 23 -16 78 -25 123 -26 137 -139
451 -181 503 -6 8 -22 35 -34 60 -83 166 -315 448 -469 570 -24 19 -52 42 -61
50 -9 8 -23 20 -32 25 -328 223 -578 330 -903 386 -114 20 -467 35 -535 23z
m412 -490 c273 -46 448 -112 664 -247 118 -75 281 -220 364 -327 19 -25 37
-47 40 -50 3 -3 21 -27 41 -55 130 -186 222 -413 263 -650 21 -122 21 -413 0
-526 -24 -130 -73 -292 -123 -402 -127 -282 -371 -553 -648 -720 -177 -107
-426 -191 -643 -217 -409 -49 -826 70 -1180 336 -63 48 -202 183 -241 234 -15
19 -39 49 -53 65 -31 35 -120 182 -165 273 -52 103 -100 249 -137 417 -21 99
-25 436 -6 530 35 169 94 345 154 463 48 93 131 229 152 247 6 6 24 28 41 50
71 96 256 262 366 329 24 15 51 31 59 36 157 99 391 181 630 223 67 12 336 6
422 -9z"/>
<path d="M7555 18945 c-49 -8 -99 -19 -110 -24 -11 -5 -45 -15 -75 -22 -118
-26 -316 -115 -450 -204 -65 -44 -152 -114 -100 -82 14 9 57 33 95 53 39 20
77 42 85 48 35 27 202 107 261 125 179 55 309 76 469 75 133 0 372 -19 425
-34 17 -4 64 -16 105 -25 41 -10 86 -23 100 -30 14 -7 43 -21 65 -30 121 -51
266 -137 345 -205 30 -25 82 -66 115 -90 33 -24 91 -76 129 -114 l69 -71 -76
90 c-81 97 -148 163 -212 211 -21 16 -46 35 -55 42 -47 40 -226 141 -297 168
-26 9 -52 21 -58 24 -24 16 -159 56 -295 86 -97 22 -422 27 -535 9z"/>
<path d="M7581 18840 c-101 -14 -297 -77 -401 -128 l-95 -47 -3 -46 c-2 -38 2
-52 23 -77 14 -16 25 -34 25 -38 -1 -17 215 -213 221 -202 5 7 34 -12 76 -49
37 -33 78 -65 90 -72 27 -14 68 -14 96 0 21 10 21 10 3 -5 -11 -9 -38 -16 -60
-16 -35 -1 -38 -2 -22 -11 41 -24 157 48 142 88 -3 7 13 53 35 101 23 48 54
130 71 182 16 52 35 110 43 128 17 37 20 134 5 162 -13 24 -6 27 58 22 45 -3
52 -7 47 -21 -11 -26 -36 -122 -45 -171 -4 -25 -27 -135 -50 -245 -47 -228
-56 -287 -42 -266 14 20 21 -17 9 -45 -21 -49 55 -145 140 -178 54 -21 98 -39
147 -61 48 -21 122 -19 173 6 42 20 123 101 123 123 0 6 -5 4 -10 -5 -5 -9
-22 -25 -37 -34 l-28 -19 30 36 c17 19 42 56 57 81 15 26 33 46 39 45 10 -3
77 78 78 95 1 4 12 24 24 45 23 35 77 131 103 181 16 30 -2 67 -23 49 -20 -16
-45 -2 -38 22 5 15 2 20 -13 20 -11 0 -30 8 -43 18 -69 53 -248 137 -346 162
-29 8 -49 18 -46 23 3 5 -4 6 -16 2 -29 -9 -143 5 -116 15 11 4 30 3 43 -1 33
-13 72 -11 72 2 0 8 11 10 33 6 157 -29 261 -70 387 -151 39 -25 77 -46 85
-46 7 0 16 -9 20 -19 10 -31 39 -31 50 0 l10 27 45 -40 c33 -30 41 -41 30 -46
-38 -14 -89 -83 -130 -177 -23 -55 -53 -122 -65 -150 -81 -178 -96 -227 -84
-270 15 -54 70 -86 166 -95 l78 -7 -80 -2 c-63 -1 -76 -4 -61 -12 13 -8 80 -9
225 -3 113 5 226 8 251 7 35 -1 40 1 20 7 -18 6 -20 8 -7 9 10 1 33 12 51 26
18 14 38 25 43 25 21 0 21 29 -1 91 -33 94 -89 205 -140 279 -25 36 -57 83
-72 105 -43 64 -243 255 -330 315 -159 110 -360 196 -554 235 -90 18 -417 28
-509 15z m154 -84 c17 -12 14 -15 -36 -26 -90 -20 -184 -38 -187 -35 -1 1 4
15 13 31 8 16 15 25 15 21 0 -4 12 -1 28 7 35 19 142 21 167 2z m231 -54 c-4
-3 -11 -1 -17 5 -7 7 -6 19 3 39 l13 29 3 -34 c2 -18 1 -36 -2 -39z m-170 27
c3 -6 2 -15 -2 -19 -12 -12 -38 5 -30 19 9 14 23 14 32 0z m-416 -14 c0 -9 -9
-15 -22 -15 -21 -1 -21 -2 -5 -11 9 -5 21 -8 25 -5 9 5 39 -11 32 -17 -3 -2
-39 -17 -80 -32 -41 -15 -90 -33 -109 -40 -19 -7 -38 -22 -42 -32 -9 -26 -38
-37 -45 -19 -11 28 1 71 20 74 10 2 28 15 40 28 11 14 55 38 96 54 88 34 90
35 90 15z m120 -31 c0 -14 -12 -19 -23 -8 -9 9 4 35 14 28 5 -3 9 -12 9 -20z
m-45 -4 c3 -5 1 -10 -4 -10 -6 0 -11 5 -11 10 0 6 2 10 4 10 3 0 8 -4 11 -10z
m577 -235 c120 -23 305 -108 384 -177 27 -24 32 -33 23 -44 -6 -8 -20 -14 -31
-14 -15 0 -18 -5 -13 -21 8 -24 -28 -65 -46 -53 -7 4 -7 -2 1 -16 11 -20 10
-22 -3 -17 -11 4 -14 2 -10 -9 3 -7 1 -14 -4 -14 -10 0 -51 27 -71 47 -13 13
-32 18 -32 8 0 -2 21 -18 46 -35 46 -32 55 -56 10 -26 -14 9 -35 16 -46 16
-11 0 -40 10 -63 21 -39 20 -40 22 -19 30 28 11 28 23 0 36 -21 9 -23 8 -24
-22 0 -28 6 -35 45 -58 25 -14 60 -38 76 -52 l30 -27 -32 21 c-49 33 -162 86
-223 106 -61 19 -85 35 -54 35 16 0 17 2 4 10 -8 5 -10 10 -5 10 12 0 -36 26
-62 34 -10 2 5 3 32 0 l50 -4 -50 14 c-27 9 -54 15 -59 16 -6 0 -5 5 2 12 9 9
18 9 37 0 36 -17 45 -15 45 9 0 16 -5 20 -20 16 -11 -3 -18 -1 -14 4 3 5 -6 9
-20 9 -32 0 -34 17 -3 23 19 4 19 4 -5 6 -35 1 -47 21 -14 21 14 0 26 5 26 10
0 6 -12 10 -27 10 -19 0 -24 3 -15 9 11 7 11 9 -2 14 -10 4 -13 13 -9 24 14
38 45 41 165 18z m818 -150 c7 -8 16 -13 20 -10 23 14 119 -123 206 -297 68
-136 76 -163 56 -181 -9 -8 -30 -17 -47 -19 -28 -3 -30 0 -36 37 -16 101 -117
291 -218 407 -30 36 -43 63 -34 72 11 11 40 6 53 -9z m-372 -165 c-10 -29 -25
-46 -33 -38 -5 4 32 68 39 68 3 0 0 -14 -6 -30z m-435 -24 c42 -13 90 -34 106
-45 16 -12 33 -21 38 -21 15 -1 77 -59 70 -66 -4 -4 -15 -1 -24 7 -15 11 -15
10 1 -9 23 -26 6 -30 -17 -4 -31 34 -219 122 -264 123 -23 0 -25 2 -8 8 19 8
19 8 0 19 -20 11 -19 11 1 12 12 0 56 -11 97 -24z m-135 -3 c-10 -2 -26 -2
-35 0 -10 3 -2 5 17 5 19 0 27 -2 18 -5z m744 -61 c73 -98 128 -198 103 -188
-9 3 -15 -1 -15 -9 0 -8 -4 -15 -9 -15 -14 0 -61 45 -61 59 0 6 -4 11 -10 11
-5 0 -10 -16 -10 -35 0 -19 5 -35 10 -35 6 0 10 -5 10 -12 0 -16 -38 20 -45
43 -4 11 -23 30 -43 44 -32 22 -34 25 -14 25 15 0 22 6 22 20 0 13 -7 20 -20
20 -12 0 -20 7 -20 17 0 22 41 113 51 113 4 0 27 -26 51 -58z m-102 -93 c0 -6
-4 -7 -10 -4 -5 3 -10 11 -10 16 0 6 5 7 10 4 6 -3 10 -11 10 -16z m-15 -19
c3 -5 1 -10 -4 -10 -6 0 -11 5 -11 10 0 6 2 10 4 10 3 0 8 -4 11 -10z m255
-125 c0 -5 -5 -3 -10 5 -5 8 -10 20 -10 25 0 6 5 3 10 -5 5 -8 10 -19 10 -25z"/>
<path d="M8052 18351 c-10 -6 -10 -10 3 -21 18 -15 42 0 31 19 -8 13 -16 14
-34 2z"/>
<path d="M8080 18260 c8 -5 22 -9 30 -9 10 0 8 3 -5 9 -27 12 -43 12 -25 0z"/>
<path d="M8266 18191 c-3 -5 1 -15 10 -22 13 -10 17 -10 24 1 5 8 6 18 4 22
-7 11 -31 10 -38 -1z"/>
<path d="M8191 18127 c2 -1 13 -9 24 -17 19 -14 19 -14 6 3 -7 9 -18 17 -24
17 -6 0 -8 -1 -6 -3z"/>
<path d="M7005 18615 l-30 -25 38 21 c20 11 37 23 37 25 0 10 -17 2 -45 -21z"/>
<path d="M6920 18559 c-33 -20 -119 -92 -185 -155 -149 -142 -340 -474 -272
-474 16 0 48 -36 39 -45 -4 -3 1 -3 10 0 11 4 20 -1 28 -14 6 -12 43 -39 83
-61 40 -23 99 -58 132 -79 200 -126 284 -165 365 -169 99 -4 142 21 236 138
126 158 147 236 90 332 -12 21 -110 138 -217 260 -216 248 -253 288 -265 288
-5 0 -25 -10 -44 -21z m83 -103 c-4 -7 -37 -37 -73 -66 -155 -127 -267 -266
-330 -412 -14 -32 -30 -58 -37 -58 -17 0 -63 22 -63 30 0 12 77 164 101 201
57 83 178 219 195 219 6 0 23 13 38 29 31 32 102 68 113 57 4 -4 -3 -17 -17
-28 -22 -17 -20 -17 15 3 22 12 44 26 50 31 14 12 17 10 8 -6z m-142 -523
c-12 -20 -14 -14 -5 12 4 9 9 14 11 11 3 -2 0 -13 -6 -23z m-11 -27 c0 -7 -41
-76 -45 -76 -2 0 4 18 13 40 9 22 20 40 25 40 4 0 7 -2 7 -4z m370 -99 c0 -2
-10 -12 -22 -23 l-23 -19 19 23 c18 21 26 27 26 19z m-166 -97 c4 -24 3 -31
-4 -24 -6 6 -13 28 -16 50 -6 48 10 26 20 -26z"/>
<path d="M7457 18189 c12 -12 24 -21 27 -18 2 2 -8 13 -22 23 l-27 19 22 -24z"/>
<path d="M7623 18110 c-18 -4 -44 -15 -59 -25 -30 -19 -30 -21 10 -165 15 -52
30 -112 35 -133 10 -43 28 -69 28 -40 -1 80 3 91 31 95 15 3 34 8 43 12 12 5
21 -5 38 -45 27 -66 37 -58 17 12 -27 91 -26 92 52 87 37 -3 75 -8 85 -13 9
-4 17 -3 17 1 0 5 -13 15 -30 22 -39 18 -88 81 -104 134 -10 36 -16 43 -37 41
-13 -1 -40 4 -59 11 -21 8 -48 10 -67 6z m42 -53 c4 -17 13 -43 20 -57 7 -14
15 -37 19 -52 5 -23 1 -29 -26 -42 -17 -9 -35 -16 -39 -16 -7 0 -59 148 -59
170 0 12 61 41 72 34 3 -2 10 -19 13 -37z"/>
<path d="M7541 17898 c-1 -21 4 -38 9 -38 11 0 11 14 0 50 -7 22 -8 21 -9 -12z"/>
<path d="M8298 17836 c-9 -12 -25 -23 -35 -23 -10 0 -45 0 -78 -2 -49 -1 -57
-4 -44 -14 8 -7 31 -25 49 -40 32 -28 33 -29 14 -46 -10 -9 -31 -22 -46 -29
-22 -9 -26 -9 -22 2 3 8 -8 23 -25 36 l-31 21 0 -38 c0 -21 -7 -49 -16 -61 -8
-12 -14 -22 -12 -23 37 -9 53 -4 100 27 52 35 53 36 58 13 5 -21 35 -48 43
-39 2 3 7 17 11 33 5 20 3 27 -9 27 -22 0 -18 28 5 35 11 3 42 22 69 41 28 19
54 34 57 34 4 0 25 -19 48 -41 l40 -42 -22 -18 c-12 -9 -46 -25 -75 -35 -28
-9 -69 -28 -89 -41 -21 -12 -43 -23 -50 -23 -20 0 -47 -31 -41 -47 4 -9 0 -14
-8 -13 -25 4 -39 0 -39 -10 0 -16 22 -12 60 10 19 11 76 40 125 64 50 24 105
57 123 74 38 35 37 51 -4 114 -19 30 -32 39 -63 44 -22 4 -42 13 -45 20 -8 21
-29 16 -48 -10z m52 -41 c-7 -9 -15 -13 -19 -10 -3 3 1 10 9 15 21 14 24 12
10 -5z m-44 -30 c-11 -8 -24 -15 -30 -15 -5 0 -1 7 10 15 10 8 24 14 29 14 6
0 1 -6 -9 -14z"/>
<path d="M7790 17793 c0 -50 -19 -83 -48 -83 -7 0 -12 -5 -12 -11 0 -6 7 -8
16 -5 9 3 21 6 28 6 7 0 21 18 31 40 10 23 23 43 28 47 5 3 2 -9 -7 -25 -22
-43 -20 -76 8 -121 47 -74 136 -81 194 -14 18 20 35 48 39 61 9 38 -29 106
-70 125 -43 21 -67 21 -115 2 -33 -13 -35 -13 -18 0 16 12 17 15 4 15 -8 0
-30 3 -47 6 l-31 7 0 -50z m191 -74 c14 -26 -2 -45 -28 -34 -10 4 -28 7 -40 6
-13 -1 -26 6 -33 20 -7 12 -8 19 -3 16 5 -3 15 -2 23 4 27 16 69 10 81 -12z"/>
<path d="M6403 17815 c-49 -34 -86 -222 -86 -435 0 -271 19 -329 108 -330 37
0 55 8 156 64 343 190 371 210 383 285 6 42 -13 111 -32 111 -9 0 -249 174
-262 190 -3 3 -37 29 -77 58 -95 70 -148 86 -190 57z m106 -71 c3 -3 1 -8 -5
-12 -34 -23 -59 -409 -34 -534 6 -33 10 -62 8 -64 -2 -2 -19 -5 -38 -6 -32 -3
-34 -1 -48 47 -10 33 -15 99 -16 195 -1 119 3 164 23 250 30 136 35 144 74
136 17 -3 33 -9 36 -12z m217 -412 c-17 -16 -18 -16 -5 5 7 12 15 20 18 17 3
-2 -3 -12 -13 -22z"/>
<path d="M7580 17751 c0 -6 5 -13 10 -16 6 -3 10 1 10 9 0 9 -4 16 -10 16 -5
0 -10 -4 -10 -9z"/>
<path d="M7458 17703 c-32 -20 -68 -81 -68 -117 0 -36 60 -93 107 -102 57 -11
124 28 141 81 18 56 6 93 -43 127 -46 32 -97 36 -137 11z m107 -94 c9 -28 -9
-46 -30 -29 -8 7 -24 10 -35 7 -14 -4 -20 0 -20 12 0 25 9 31 46 31 24 0 34
-5 39 -21z"/>
<path d="M9165 17685 c-5 -2 -134 -18 -285 -35 -330 -37 -388 -52 -447 -113
-55 -57 -66 -107 -59 -264 2 -65 5 -125 6 -135 2 -26 69 -97 111 -118 61 -32
59 -23 -6 19 -58 38 -104 94 -87 105 5 3 18 -8 30 -23 35 -48 120 -89 243
-118 124 -28 144 -38 110 -51 -16 -6 7 -12 91 -26 62 -11 133 -25 158 -32 25
-6 66 -15 92 -19 40 -5 49 -3 67 16 22 24 28 55 11 61 -7 2 -5 27 7 70 14 54
19 63 29 50 9 -13 13 -4 23 49 18 93 25 362 13 441 -15 94 -30 123 -67 125
-17 1 -34 0 -40 -2z m19 -94 c11 -12 24 -57 34 -117 13 -82 14 -114 4 -213
-10 -98 -53 -295 -67 -309 -5 -5 -95 18 -95 24 0 3 9 37 19 77 36 136 46 220
45 390 0 164 0 167 22 167 11 0 29 -9 38 -19z m-476 -67 c12 -22 120 -26 133
-4 18 30 27 -11 28 -125 2 -111 -10 -172 -29 -160 -5 3 -10 11 -10 16 0 6 5 7
10 4 6 -3 10 1 10 9 0 9 -5 15 -12 14 -7 -2 -15 13 -18 35 -11 61 -19 58 -42
-12 -3 -12 -6 -12 -18 1 -8 8 -22 13 -31 11 -9 -3 -20 0 -23 6 -4 6 -22 11
-41 11 -20 0 -40 7 -47 16 -7 9 -28 33 -47 53 l-35 36 -7 -25 c-5 -18 -7 -9
-8 31 -1 62 5 75 27 56 12 -9 16 -9 19 1 6 17 40 15 47 -3 9 -25 33 -17 45 15
11 32 35 39 49 14z m-161 -146 c-3 -8 -6 -5 -6 6 -1 11 2 17 5 13 3 -3 4 -12
1 -19z m703 -252 c0 -3 -4 -8 -10 -11 -5 -3 -10 -1 -10 4 0 6 5 11 10 11 6 0
10 -2 10 -4z"/>
<path d="M8711 17447 c-15 -39 -14 -57 5 -64 29 -11 38 13 21 54 l-15 38 -11
-28z"/>
<path d="M7715 17561 c-22 -10 -46 -25 -54 -35 -9 -10 7 -5 44 14 81 43 176
36 238 -17 21 -18 21 -18 7 1 -23 30 -90 56 -145 56 -27 0 -68 -9 -90 -19z"/>
<path d="M7620 17495 c-8 -9 -8 -15 -2 -15 12 0 26 19 19 26 -2 2 -10 -2 -17
-11z"/>
<path d="M7044 17465 c-9 -14 -13 -29 -9 -33 4 -4 10 -1 12 6 3 7 11 19 19 26
16 17 18 26 4 26 -5 0 -17 -11 -26 -25z"/>
<path d="M7120 17486 c3 -2 32 -9 65 -15 35 -7 65 -18 73 -29 14 -18 57 -18
80 0 7 6 31 8 57 5 36 -5 45 -4 45 9 0 8 -6 16 -12 18 -19 6 -313 18 -308 12z"/>
<path d="M8092 17453 c-56 -47 -59 -125 -9 -187 20 -24 33 -30 78 -34 45 -3
59 0 83 19 34 27 59 82 51 112 -16 56 -30 78 -62 97 -49 29 -101 26 -141 -7z
m95 -39 c-3 -3 -12 -4 -19 -1 -8 3 -5 6 6 6 11 1 17 -2 13 -5z m-57 -18 c-10
-13 -5 -15 32 -13 40 2 43 0 46 -25 3 -28 -11 -38 -24 -17 -3 6 -19 9 -35 7
-22 -3 -30 0 -35 14 -5 17 10 48 23 48 3 0 0 -7 -7 -14z"/>
<path d="M7590 17413 c0 -22 2 -25 10 -13 13 20 13 40 0 40 -5 0 -10 -12 -10
-27z"/>
<path d="M7030 17358 c0 -34 26 -39 204 -39 168 0 196 2 196 20 0 13 -106 34
-136 28 -16 -4 -69 -9 -117 -11 -49 -3 -93 -8 -98 -12 -6 -3 -19 2 -30 12 -16
14 -19 15 -19 2z"/>
<path d="M7590 17346 c0 -8 5 -18 10 -21 6 -3 10 3 10 14 0 12 -4 21 -10 21
-5 0 -10 -6 -10 -14z"/>
<path d="M7455 17294 c-73 -38 -98 -92 -76 -164 27 -90 160 -107 215 -28 18
25 22 119 6 147 -24 46 -99 69 -145 45z m84 -67 c14 -16 19 -30 15 -43 -11
-29 -24 -33 -53 -18 -14 8 -32 14 -38 14 -22 0 -14 20 12 32 19 9 29 8 50 -6
25 -17 26 -17 13 4 -7 11 -18 20 -25 20 -7 0 -13 5 -13 10 0 17 15 11 39 -13z
m-102 -69 c-3 -7 -5 -2 -5 12 0 14 2 19 5 13 2 -7 2 -19 0 -25z"/>
<path d="M7480 17200 c0 -5 5 -10 10 -10 6 0 10 5 10 10 0 6 -4 10 -10 10 -5
0 -10 -4 -10 -10z"/>
<path d="M7611 17300 c-1 -16 20 -51 49 -82 40 -44 141 -60 222 -36 39 12 119
86 117 110 0 7 -5 4 -11 -7 -5 -11 -24 -31 -41 -45 -17 -14 -28 -20 -25 -14
10 15 -45 54 -75 54 -41 0 -85 -72 -56 -91 10 -6 5 -9 -15 -9 -45 0 -137 65
-155 110 -5 14 -10 18 -10 10z m274 -100 c3 -5 1 -10 -4 -10 -6 0 -11 5 -11
10 0 6 2 10 4 10 3 0 8 -4 11 -10z"/>
<path d="M7025 17220 c-16 -4 -66 -22 -110 -40 -44 -18 -96 -38 -115 -45 -19
-8 -106 -43 -194 -79 -87 -36 -164 -66 -171 -66 -20 0 -33 -22 -39 -65 -3 -22
-3 -32 0 -22 3 9 9 17 14 17 4 0 10 -8 13 -17 5 -17 33 -84 91 -218 14 -33 20
-52 13 -41 -44 67 -55 87 -76 136 -24 57 -51 97 -31 45 56 -141 142 -290 222
-385 7 -9 24 -29 38 -46 41 -49 139 -134 155 -134 16 0 70 44 308 252 95 82
189 170 209 195 59 71 73 150 40 233 -25 65 -120 217 -154 245 -48 41 -136 55
-213 35z m-465 -321 c19 -54 62 -140 115 -234 35 -61 90 -132 162 -208 l55
-59 -23 -24 c-12 -13 -27 -24 -32 -24 -14 0 -155 145 -204 211 -82 108 -183
305 -183 358 0 14 73 51 83 42 4 -4 16 -32 27 -62z m798 -161 c-21 -31 -140
-148 -151 -148 -5 0 28 40 74 89 82 86 107 106 77 59z"/>
<path d="M8130 17186 c0 -3 8 -12 17 -21 13 -14 14 -21 5 -36 -8 -12 -8 -19
-2 -19 5 0 10 5 10 10 0 6 5 10 11 10 12 0 20 -7 109 -89 30 -28 58 -51 62
-51 14 0 78 -62 78 -76 0 -17 -41 -55 -55 -51 -5 2 -15 -3 -20 -10 -9 -12 -22
-3 -68 44 -68 70 -108 123 -101 134 3 5 -1 9 -9 9 -7 0 -33 9 -56 21 -41 19
-69 16 -53 -6 4 -6 31 -28 60 -50 29 -22 52 -47 52 -57 0 -10 4 -18 10 -18 5
0 23 -13 40 -30 17 -16 38 -30 46 -30 8 0 13 -4 9 -10 -7 -11 46 -40 74 -40
11 0 33 17 50 37 40 49 42 93 4 122 -26 21 -103 88 -195 169 -41 36 -78 54
-78 38z"/>
<path d="M7833 17130 c-45 -27 -56 -53 -51 -123 4 -54 8 -64 38 -89 49 -40 89
-45 134 -16 42 27 61 67 60 125 -1 52 -25 90 -69 109 -46 19 -74 18 -112 -6z
m104 -100 c6 -13 11 -26 9 -27 -1 -1 -17 2 -36 7 -23 7 -38 6 -47 -1 -10 -9
-13 -7 -13 8 0 47 65 57 87 13z"/>
<path d="M7574 17005 c-7 -19 -14 -43 -14 -53 0 -10 -4 -22 -10 -28 -5 -5 -28
-58 -50 -118 -35 -94 -40 -113 -30 -136 18 -44 126 -68 138 -31 3 10 -2 12
-21 7 -25 -6 -25 -5 -16 26 14 51 11 68 -11 68 -28 0 -48 -45 -32 -71 15 -23
9 -24 -23 -3 -14 9 -25 22 -25 29 0 17 31 76 47 90 7 5 17 33 24 60 6 28 22
83 34 123 24 73 16 101 -11 37z"/>
<path d="M9222 17006 c-8 -21 -11 -40 -8 -43 7 -8 28 47 24 65 -2 8 -9 -2 -16
-22z"/>
<path d="M8558 16993 c7 -3 16 -2 19 1 4 3 -2 6 -13 5 -11 0 -14 -3 -6 -6z"/>
<path d="M7610 16975 c0 -18 41 -37 54 -25 5 5 6 16 3 24 -8 21 -57 21 -57 1z"/>
<path d="M8598 16983 c6 -2 18 -2 25 0 6 3 1 5 -13 5 -14 0 -19 -2 -12 -5z"/>
<path d="M7686 16925 c-14 -31 -26 -62 -26 -69 0 -12 -33 -125 -47 -162 -3 -8
-1 -14 5 -14 5 0 24 46 42 102 18 57 39 112 47 123 13 19 14 18 11 -15 -3 -37
0 -38 57 -26 11 3 38 5 60 5 l40 1 -28 14 c-15 8 -49 33 -75 55 -27 23 -51 41
-54 41 -3 0 -17 -25 -32 -55z"/>
<path d="M8016 16945 c-9 -13 -16 -27 -16 -30 0 -9 39 19 44 32 10 24 -12 23
-28 -2z"/>
<path d="M8710 16960 c20 -13 40 -13 40 0 0 6 -12 10 -27 10 -22 0 -25 -2 -13
-10z"/>
<path d="M8484 16862 c-34 -22 -64 -76 -64 -116 0 -15 19 -86 41 -159 23 -73
54 -173 69 -224 16 -50 34 -101 39 -112 14 -26 73 -71 94 -71 38 0 228 178
323 302 24 32 67 98 95 147 40 72 50 97 47 127 -4 50 -47 80 -126 89 -31 3
-97 10 -147 16 -49 6 -146 13 -215 15 -112 5 -128 4 -156 -14z m566 -77 c5 3
13 -1 16 -10 10 -24 -47 -122 -161 -280 -35 -48 -167 -169 -220 -201 -37 -22
-40 -22 -67 -6 -34 20 -33 46 1 50 43 6 230 213 309 342 25 40 48 87 56 113 5
16 7 17 30 1 14 -8 30 -13 36 -9z"/>
<path d="M7958 16843 c7 -3 16 -2 19 1 4 3 -2 6 -13 5 -11 0 -14 -3 -6 -6z"/>
<path d="M8010 16838 c-161 -44 -201 -61 -235 -94 -60 -58 -70 -91 -68 -234 3
-150 26 -404 42 -443 9 -24 13 -26 30 -15 14 8 23 9 33 1 19 -15 172 -1 283
26 146 35 337 115 348 146 4 8 11 15 17 15 10 0 50 -58 50 -72 0 -10 -129 -69
-245 -113 -99 -37 -259 -67 -408 -78 -61 -4 -69 -3 -79 17 -11 21 -12 21 -19
-5 -3 -15 -2 -43 5 -63 l11 -36 70 0 c191 0 397 50 575 138 105 52 115 60 118
87 2 16 8 33 14 36 7 5 7 13 -1 25 -6 11 -11 13 -11 7 -1 -34 -19 -4 -49 80
-47 131 -179 425 -210 468 -73 101 -164 137 -271 107z"/>
<path d="M7908 16833 c7 -3 16 -2 19 1 4 3 -2 6 -13 5 -11 0 -14 -3 -6 -6z"/>
<path d="M7690 16816 c-6 -6 -10 -17 -10 -25 0 -13 2 -14 9 -2 6 10 32 14 82
16 117 2 137 20 23 20 -52 0 -99 -4 -104 -9z"/>
<path d="M7380 16572 c-19 -10 -89 -57 -155 -105 -65 -47 -122 -84 -126 -81
-4 2 -10 -3 -13 -12 -4 -9 -13 -14 -22 -10 -8 3 -13 2 -10 -3 3 -4 -3 -16 -14
-26 -19 -17 -19 -18 12 -51 82 -86 475 -238 562 -217 17 4 35 7 41 7 5 1 11 9
13 19 3 15 -40 228 -68 337 -5 19 -11 46 -14 60 -3 14 -18 40 -34 59 -24 30
-35 35 -83 38 -40 3 -63 -1 -89 -15z"/>
<path d="M6999 16331 c-20 -17 -55 -37 -77 -47 -23 -9 -42 -18 -42 -21 0 -6
43 -42 51 -43 4 0 14 17 22 38 8 21 26 43 39 50 19 11 56 52 45 52 -1 0 -19
-13 -38 -29z"/>
<path d="M6977 16268 c-16 -26 -27 -56 -27 -78 0 -32 5 -38 63 -74 97 -62 167
-99 237 -129 81 -34 297 -87 353 -87 l43 0 18 58 c9 31 20 63 23 70 8 21 -24
13 -39 -10 -13 -19 -22 -21 -74 -19 -99 4 -231 38 -349 90 -80 35 -180 89
-207 111 l-32 27 16 42 c21 53 10 53 -25 -1z"/>
<path d="M8526 16217 c3 -10 9 -15 12 -12 3 3 0 11 -7 18 -10 9 -11 8 -5 -6z"/>
<path d="M7680 16066 c0 -9 5 -16 10 -16 6 0 10 4 10 9 0 6 -4 13 -10 16 -5 3
-10 -1 -10 -9z"/>
<path d="M7698 15982 c-17 -39 -11 -52 24 -52 14 0 16 7 11 38 -8 53 -16 57
-35 14z"/>
<path d="M8108 15813 c7 -3 16 -2 19 1 4 3 -2 6 -13 5 -11 0 -14 -3 -6 -6z"/>
<path d="M7988 15793 c7 -3 16 -2 19 1 4 3 -2 6 -13 5 -11 0 -14 -3 -6 -6z"/>
<path d="M33619 15065 c-4 -35 -11 -61 -44 -155 -20 -58 -40 -114 -45 -125 -5
-11 -14 -38 -21 -60 -7 -22 -17 -44 -21 -49 -4 -6 -8 -18 -8 -28 0 -10 -4 -26
-9 -36 -15 -29 -29 -65 -42 -107 -7 -22 -16 -44 -20 -50 -4 -5 -10 -28 -14
-50 -9 -47 -40 -136 -63 -182 -16 -31 -13 -51 6 -39 5 3 19 34 31 68 12 35 26
72 31 83 5 11 12 31 14 45 5 28 47 148 96 280 18 47 35 95 37 108 3 12 9 25
14 28 5 3 9 15 9 28 0 12 4 26 8 32 5 5 15 29 22 54 8 25 22 64 31 87 15 36
16 44 4 60 -8 10 -15 14 -16 8z"/>
<path d="M28440 14723 c-110 -7 -98 -25 15 -21 60 2 99 7 98 13 -3 12 -23 13
-113 8z"/>
<path d="M25190 14435 c-95 -17 -120 -24 -120 -36 0 -14 139 0 166 18 18 12
22 11 32 -9 6 -13 13 -74 16 -136 5 -95 9 -117 28 -142 12 -16 23 -28 24 -27
2 2 -2 43 -7 92 -6 50 -14 117 -18 150 -10 95 -25 106 -121 90z"/>
<path d="M31430 14274 c-58 -24 -150 -63 -205 -85 -55 -22 -109 -46 -120 -53
-11 -7 -63 -29 -115 -50 -304 -121 -500 -200 -533 -217 -21 -10 -46 -19 -57
-19 -10 0 -22 -4 -25 -10 -3 -5 -21 -10 -39 -10 -19 0 -40 -7 -47 -16 -12 -15
-10 -16 26 -11 67 9 127 24 134 34 3 5 26 15 51 23 25 7 63 21 85 31 22 9 143
58 270 109 126 50 241 100 256 111 15 10 31 19 36 19 5 0 98 36 208 80 110 44
200 80 202 80 2 0 3 -11 3 -24 0 -14 -13 -38 -30 -54 -35 -36 -37 -42 -10 -42
11 0 29 13 41 29 13 18 27 27 39 24 10 -3 27 5 39 18 27 29 20 35 -18 16 l-30
-15 -3 37 c-4 51 -30 50 -158 -5z"/>
<path d="M32819 14143 c80 -104 126 -185 156 -277 11 -33 25 -61 30 -63 6 -2
25 10 43 27 18 16 44 32 58 35 13 3 34 7 47 10 26 5 37 25 74 135 14 41 31 87
39 102 27 52 30 51 -210 43 -160 -5 -225 -4 -230 4 -4 6 -12 11 -17 11 -6 0
-1 -12 10 -27z"/>
<path d="M33283 14083 c-84 -239 -79 -230 -132 -239 -72 -13 -149 -69 -137
-101 6 -15 10 -13 26 13 11 17 32 36 47 43 16 8 36 17 45 22 10 5 33 9 52 9
36 0 38 4 77 125 7 22 16 45 19 50 4 6 12 30 20 55 7 25 17 49 22 55 10 12 10
55 0 55 -5 0 -22 -39 -39 -87z"/>
<path d="M31456 14121 c-41 -43 -23 -61 20 -20 19 18 34 37 34 41 0 17 -28 7
-54 -21z"/>
<path d="M31398 14064 c-12 -11 4 -34 24 -34 13 0 18 6 16 17 -3 18 -29 29
-40 17z"/>
<path d="M31341 13984 c-26 -43 -24 -68 5 -72 17 -2 27 7 44 42 12 25 19 50
15 56 -13 21 -44 9 -64 -26z"/>
<path d="M31290 13880 c0 -13 48 -36 56 -27 4 3 4 13 1 22 -7 17 -57 21 -57 5z"/>
<path d="M31272 13818 c3 -7 19 -14 37 -16 24 -3 32 0 29 10 -3 7 -19 14 -37
16 -24 3 -32 0 -29 -10z"/>
<path d="M30175 13801 c-25 -5 -27 -8 -12 -14 25 -10 79 -9 95 2 11 7 10 10
-3 15 -19 7 -38 6 -80 -3z"/>
<path d="M31267 13763 c-5 -7 -11 -132 -8 -160 1 -7 10 -13 21 -13 23 0 23 0
40 94 11 57 10 70 -1 77 -17 11 -46 12 -52 2z"/>
<path d="M31255 13550 c-9 -15 14 -40 35 -40 19 0 30 17 23 38 -6 15 -49 16
-58 2z"/>
<path d="M31264 13465 c-8 -21 4 -35 31 -35 29 0 41 16 25 35 -16 19 -49 19
-56 0z"/>
<path d="M31285 13390 c-13 -20 6 -50 31 -50 22 0 25 4 22 28 -2 19 -9 28 -25
30 -11 2 -24 -2 -28 -8z"/>
<path d="M31300 13294 c0 -17 22 -14 28 4 2 7 -3 12 -12 12 -9 0 -16 -7 -16
-16z"/>
<path d="M31007 13093 c-82 -3 -109 -7 -113 -18 -7 -18 65 -123 89 -131 31
-10 407 18 406 30 0 6 -12 36 -27 66 l-27 55 -110 1 c-60 0 -159 -1 -218 -3z"/>
<path d="M28265 13071 c10 -10 101 -28 195 -38 72 -8 33 20 -43 30 -135 18
-162 19 -152 8z"/>
<path d="M28517 13039 c7 -7 41 -15 75 -17 49 -3 60 -1 52 8 -7 6 -40 14 -75
17 -53 5 -62 3 -52 -8z"/>
<path d="M28686 13021 c-9 -14 -20 -12 114 -22 229 -18 335 -21 370 -11 35 10
35 10 -15 9 -43 0 -190 11 -401 29 -39 4 -64 2 -68 -5z"/>
<path d="M1480 11010 l0 -790 4390 0 4390 0 0 790 0 790 -4390 0 -4390 0 0
-790z m708 268 c-5 -15 -408 -24 -408 -10 0 20 22 22 213 22 154 0 198 -3 195
-12z m506 -3 c-5 -13 -36 -15 -195 -15 -161 0 -189 2 -189 15 0 13 28 15 195
15 169 0 194 -2 189 -15z m246 0 c0 -12 -13 -15 -60 -15 -47 0 -60 3 -60 15 0
12 13 15 60 15 47 0 60 -3 60 -15z m300 0 c0 -12 -14 -15 -65 -15 -60 0 -75 6
-58 23 3 4 33 7 65 7 45 0 58 -3 58 -15z m1334 0 c5 -13 -19 -15 -179 -15
-106 0 -185 4 -185 9 0 17 24 19 191 20 140 1 168 -1 173 -14z m536 0 c0 -13
-28 -15 -190 -15 -162 0 -190 2 -190 15 0 13 28 15 190 15 162 0 190 -2 190
-15z m250 0 c0 -12 -13 -15 -60 -15 -47 0 -60 3 -60 15 0 12 13 15 60 15 47 0
60 -3 60 -15z m298 3 c-3 -8 -28 -14 -66 -16 -51 -2 -62 0 -62 13 0 12 13 15
66 15 48 0 65 -3 62 -12z m572 -3 c0 -13 -15 -15 -97 -13 -66 2 -98 7 -101 16
-3 9 21 12 97 12 84 0 101 -3 101 -15z m348 3 c-3 -9 -31 -14 -81 -16 -64 -2
-77 0 -77 13 0 12 15 15 81 15 60 0 80 -3 77 -12z m462 -3 c0 -13 -21 -15
-125 -15 -104 0 -125 2 -125 15 0 13 21 15 125 15 104 0 125 -2 125 -15z m668
-2 c3 -10 -40 -13 -192 -13 -169 0 -196 2 -196 15 0 13 26 15 192 13 142 -2
192 -6 196 -15z m532 2 c0 -13 -26 -15 -175 -15 -99 0 -175 4 -175 9 0 17 24
19 188 20 138 1 162 -1 162 -14z m250 0 c0 -12 -13 -15 -60 -15 -47 0 -60 3
-60 15 0 12 13 15 60 15 47 0 60 -3 60 -15z m298 3 c-3 -8 -28 -14 -66 -16
-51 -2 -62 0 -62 13 0 12 13 15 66 15 48 0 65 -3 62 -12z m250 0 c-3 -8 -28
-14 -66 -16 -51 -2 -62 0 -62 13 0 12 13 15 66 15 48 0 65 -3 62 -12z m492 -3
c11 -13 -10 -15 -179 -15 -163 0 -191 2 -191 15 0 13 27 15 179 15 146 0 181
-3 191 -15z m558 3 c-4 -10 -55 -14 -201 -16 -171 -2 -197 0 -197 13 0 13 28
15 201 15 156 0 200 -3 197 -12z m-7910 -50 c-5 -15 -408 -24 -408 -10 0 20
22 22 213 22 154 0 198 -3 195 -12z m502 -3 c0 -13 -28 -15 -190 -15 -162 0
-190 2 -190 15 0 13 28 15 190 15 162 0 190 -2 190 -15z m250 0 c0 -12 -13
-15 -60 -15 -47 0 -60 3 -60 15 0 12 13 15 60 15 47 0 60 -3 60 -15z m300 0
c0 -12 -14 -15 -65 -15 -60 0 -75 6 -58 23 3 4 33 7 65 7 45 0 58 -3 58 -15z
m1360 0 c0 -13 -30 -15 -210 -15 -182 0 -209 2 -204 15 5 13 38 15 210 15 175
0 204 -2 204 -15z m510 0 c0 -13 -28 -15 -190 -15 -162 0 -190 2 -190 15 0 13
28 15 190 15 162 0 190 -2 190 -15z m250 0 c0 -12 -14 -15 -65 -15 -53 0 -63
3 -59 15 5 11 22 15 65 15 46 0 59 -3 59 -15z m300 0 c0 -12 -14 -15 -65 -15
-51 0 -65 3 -65 15 0 12 14 15 65 15 51 0 65 -3 65 -15z m590 0 c0 -13 -15
-15 -97 -13 -66 2 -98 7 -101 16 -3 9 21 12 97 12 84 0 101 -3 101 -15z m330
0 c0 -12 -17 -15 -95 -15 -80 0 -93 2 -89 15 5 12 25 15 95 15 72 0 89 -3 89
-15z m478 -2 c3 -10 -26 -13 -122 -13 -106 0 -126 2 -126 15 0 13 18 15 122
13 86 -2 123 -7 126 -15z m682 2 c0 -13 -30 -15 -210 -15 -180 0 -210 2 -210
15 0 13 30 15 210 15 180 0 210 -2 210 -15z m500 0 c0 -13 -28 -15 -190 -15
-164 0 -189 2 -184 15 5 13 36 15 190 15 157 0 184 -2 184 -15z m250 0 c0 -12
-14 -15 -65 -15 -53 0 -63 3 -59 15 5 11 22 15 65 15 46 0 59 -3 59 -15z m300
0 c0 -12 -14 -15 -65 -15 -51 0 -65 3 -65 15 0 12 14 15 65 15 51 0 65 -3 65
-15z m248 3 c-3 -8 -28 -14 -66 -16 -51 -2 -62 0 -62 13 0 12 13 15 66 15 48
0 65 -3 62 -12z m522 -3 c0 -13 -29 -15 -200 -15 -171 0 -200 2 -200 15 0 13
29 15 200 15 171 0 200 -2 200 -15z m530 0 c0 -13 -29 -15 -205 -15 -178 0
-204 2 -199 15 5 13 37 15 205 15 170 0 199 -2 199 -15z m-7927 -42 c4 -3 2
-12 -4 -20 -17 -19 -389 -19 -389 0 0 8 3 17 7 20 8 9 378 9 386 0z m510 0 c4
-3 2 -12 -4 -20 -17 -19 -369 -19 -369 0 0 8 3 17 7 20 8 9 358 9 366 0z m257
-13 c0 -18 -7 -20 -65 -20 -63 0 -65 1 -55 20 9 16 21 20 65 20 48 0 55 -2 55
-20z m295 0 c0 -11 -15 -16 -62 -18 -48 -2 -63 0 -63 11 0 24 12 28 70 25 41
-2 55 -7 55 -18z m1368 14 c3 -3 3 -12 0 -20 -8 -20 -423 -21 -423 -1 0 8 3
17 7 20 8 9 407 9 416 1z m500 -1 c4 -3 2 -12 -4 -20 -17 -19 -369 -19 -369 0
0 8 3 17 7 20 8 9 358 9 366 0z m257 -13 c0 -18 -7 -20 -65 -20 -36 0 -65 2
-65 4 0 28 16 36 71 36 52 0 59 -2 59 -20z m295 0 c0 -11 -15 -16 -62 -18 -48
-2 -63 0 -63 11 0 24 12 28 70 25 41 -2 55 -7 55 -18z m613 -2 c3 -16 -7 -18
-97 -18 -78 0 -101 3 -101 13 0 25 13 28 104 25 77 -3 91 -6 94 -20z m307 2
c0 -12 -19 -16 -102 -18 -101 -3 -115 2 -91 26 19 19 193 12 193 -8z m493 -2
c3 -16 -8 -18 -122 -18 -69 0 -126 4 -126 8 0 26 29 32 135 30 95 -3 110 -5
113 -20z m672 2 c0 -19 -7 -20 -210 -20 -168 0 -210 3 -210 13 0 8 3 17 7 20
3 4 98 7 210 7 196 0 203 -1 203 -20z m488 3 c-3 -16 -21 -18 -186 -21 -148
-2 -182 0 -182 11 0 8 3 17 7 20 3 4 87 7 185 7 166 0 179 -1 176 -17z m262
-3 c0 -18 -7 -20 -65 -20 -48 0 -65 4 -65 13 0 23 11 27 72 27 51 0 58 -2 58
-20z m295 0 c0 -11 -15 -16 -62 -18 -48 -2 -63 0 -63 11 0 24 12 28 70 25 41
-2 55 -7 55 -18z m248 14 c3 -3 3 -12 0 -20 -7 -19 -123 -20 -123 -1 0 8 3 17
7 20 8 9 107 9 116 1z m527 -14 c0 -19 -7 -20 -200 -20 -160 0 -200 3 -200 13
0 8 3 17 7 20 3 4 93 7 200 7 186 0 193 -1 193 -20z m518 3 c-3 -16 -22 -18
-201 -21 -160 -2 -197 0 -197 11 0 8 3 17 7 20 3 4 94 7 200 7 180 0 194 -1
191 -17z m-7938 -51 c0 -22 -29 -32 -97 -32 -73 0 -84 5 -61 28 13 13 158 17
158 4z m413 -12 c-5 -17 -14 -20 -62 -20 -62 0 -73 4 -64 26 4 10 23 14 68 14
58 0 63 -2 58 -20z m377 0 c0 -18 -7 -20 -65 -20 -36 0 -65 2 -65 4 0 28 16
36 71 36 52 0 59 -2 59 -20z m298 3 c-3 -15 -16 -19 -66 -21 -57 -3 -62 -1
-62 18 0 18 6 20 66 20 57 0 65 -2 62 -17z m1070 0 c-3 -15 -16 -19 -66 -21
-57 -3 -62 -1 -62 18 0 18 6 20 66 20 57 0 65 -2 62 -17z m295 -3 c-5 -17 -14
-20 -64 -20 -52 0 -59 2 -59 20 0 18 7 20 64 20 59 0 64 -2 59 -20z m377 0 c0
-18 -7 -20 -65 -20 -36 0 -65 2 -65 4 0 28 16 36 71 36 52 0 59 -2 59 -20z
m378 3 c-3 -15 -16 -19 -66 -21 -47 -2 -62 0 -62 11 0 23 11 27 72 27 51 0 59
-2 56 -17z m302 13 c0 -28 -16 -36 -71 -36 -52 0 -59 2 -59 20 0 18 7 20 65
20 36 0 65 -2 65 -4z m630 0 c0 -2 3 -11 6 -20 5 -14 -8 -16 -110 -16 -109 0
-116 1 -116 20 0 19 7 20 110 20 61 0 110 -2 110 -4z m283 -16 c-5 -19 -14
-20 -119 -20 -63 0 -114 4 -114 8 0 25 30 32 131 32 102 0 107 -1 102 -20z
m517 0 c0 -18 -7 -20 -70 -20 -60 0 -70 3 -70 18 -1 16 -1 16 -11 0 -8 -14
-24 -18 -74 -18 -36 0 -65 2 -65 4 0 2 3 11 6 20 5 14 28 16 145 16 132 0 139
-1 139 -20z m353 0 c-5 -17 -14 -20 -64 -20 -52 0 -59 2 -59 20 0 18 7 20 64
20 59 0 64 -2 59 -20z m295 3 c-3 -15 -16 -19 -66 -21 -47 -2 -62 0 -62 11 0
23 11 27 72 27 51 0 59 -2 56 -17z m250 0 c-3 -15 -16 -19 -66 -21 -57 -3 -62
-1 -62 18 0 18 6 20 66 20 57 0 65 -2 62 -17z m500 0 c-3 -15 -16 -19 -66 -21
-47 -2 -62 0 -62 11 0 23 11 27 72 27 51 0 59 -2 56 -17z m302 13 c0 -28 -16
-36 -71 -36 -52 0 -59 2 -59 20 0 18 7 20 65 20 36 0 65 -2 65 -4z m215 -16
c-10 -11 -24 -20 -32 -20 -7 0 -13 9 -13 20 0 16 7 20 32 20 30 0 31 0 13 -20z
m555 0 c0 -18 -7 -20 -65 -20 -48 0 -65 4 -65 13 0 23 11 27 72 27 51 0 58 -2
58 -20z m248 3 c-3 -15 -16 -19 -66 -21 -47 -2 -62 0 -62 11 0 23 11 27 72 27
51 0 59 -2 56 -17z m-7694 -45 c-16 -26 -59 -83 -66 -86 -5 -2 -8 -8 -8 -13 0
-6 -37 -64 -82 -130 l-82 -119 -66 0 c-37 0 -69 3 -73 6 -7 7 177 282 202 302
9 7 15 16 15 20 -5 26 13 32 88 32 61 0 77 -3 72 -12z m430 -35 c-4 -27 -19
-106 -33 -178 l-26 -130 -54 -3 c-30 -2 -58 1 -63 6 -7 7 23 191 39 232 3 8 7
24 8 35 2 11 6 29 8 40 3 11 6 26 6 33 1 8 20 12 62 12 l60 0 -7 -47z m686 40
c0 -5 -5 -26 -11 -48 -5 -22 -12 -53 -14 -70 -11 -70 -37 -192 -45 -212 -8
-20 -17 -23 -65 -23 -64 0 -64 1 -40 110 23 106 27 100 -68 100 l-83 0 -20
-102 -19 -103 -63 -3 c-46 -2 -62 0 -62 10 1 7 14 76 31 153 16 77 31 149 33
160 2 11 4 23 5 28 0 4 96 7 211 7 116 0 210 -3 210 -7z m565 -30 c-4 -21 -9
-45 -12 -53 -3 -8 -6 -24 -7 -35 -1 -18 -9 -20 -99 -23 l-99 -3 5 33 c3 18 8
52 12 76 l8 42 99 0 99 0 -6 -37z m795 25 c-1 -49 -51 -271 -66 -293 -31 -47
-67 -55 -249 -55 -187 0 -173 -9 -153 96 l11 64 148 0 c150 0 159 2 159 41 0
5 -48 9 -107 9 -104 0 -158 12 -158 35 0 6 -3 15 -7 20 -4 6 -4 30 -1 53 l6
42 208 0 c161 0 209 -3 209 -12z m375 -30 c-4 -24 -19 -104 -34 -178 l-27
-135 -62 -3 c-34 -2 -62 1 -62 5 0 14 52 277 57 293 6 16 9 27 11 48 2 8 22
12 63 12 l60 0 -6 -42z m680 25 c-4 -10 -8 -27 -10 -38 -15 -98 -53 -284 -61
-296 -5 -9 -107 -13 -116 -4 -3 3 3 45 13 93 10 48 18 93 19 100 0 9 -23 12
-84 12 l-83 0 -17 -87 c-26 -133 -19 -123 -87 -123 -42 0 -59 4 -59 13 0 15
58 314 65 335 3 9 56 12 216 12 197 0 211 -1 204 -17z m658 5 c4 -10 7 -10 18
0 16 15 254 18 244 2 -3 -5 -8 -22 -10 -37 -13 -95 -52 -290 -61 -304 -6 -11
-111 -12 -118 -1 -5 8 37 223 47 239 4 7 3 14 -1 17 -5 3 -46 -56 -92 -130
-45 -75 -86 -132 -90 -127 -4 4 -19 69 -34 143 -25 127 -35 161 -37 129 -2
-34 -47 -257 -54 -270 -6 -9 -108 -13 -117 -4 -4 4 30 189 46 250 2 6 6 31 11
58 l7 47 118 0 c86 0 120 -3 123 -12z m617 7 c0 -10 -45 -91 -54 -97 -16 -11
17 -20 60 -16 22 2 38 8 37 13 0 6 -3 30 -4 55 l-4 45 68 3 67 3 2 -31 c2 -35
3 -47 22 -200 7 -63 11 -118 9 -122 -2 -5 -33 -8 -68 -8 -68 0 -75 5 -75 61
l0 29 -94 0 -95 0 -23 -42 c-23 -43 -24 -43 -86 -46 -39 -2 -62 1 -62 8 0 5
38 87 85 180 l85 170 65 0 c36 0 65 -2 65 -5z m510 -20 l-10 -25 94 0 c90 0
93 1 92 23 -1 20 4 22 62 25 70 3 69 6 48 -81 -14 -58 -55 -117 -83 -117 -17
0 -18 1 17 -72 16 -34 30 -69 30 -75 0 -9 -20 -13 -65 -13 l-65 0 -37 75 -37
75 -41 0 -41 0 -15 -72 -14 -73 -54 -3 c-30 -2 -57 0 -62 5 -4 4 3 60 17 123
13 63 26 126 29 140 3 14 7 34 9 45 3 11 5 26 5 33 1 8 21 12 66 12 l65 0 -10
-25z m550 13 c0 -7 -5 -31 -12 -53 -6 -22 -11 -43 -10 -48 1 -4 -2 -25 -7 -47
l-9 -40 124 0 c137 0 130 4 114 -70 -22 -101 -2 -90 -161 -90 -161 0 -203 12
-214 59 -5 22 32 232 50 289 3 8 25 12 65 12 41 0 60 -4 60 -12z m795 -5 c-4
-10 -9 -27 -10 -38 -17 -106 -53 -283 -61 -296 -5 -9 -107 -13 -116 -4 -3 3 3
45 13 93 10 48 18 93 19 100 0 9 -23 12 -84 12 l-83 0 -17 -87 c-26 -133 -19
-123 -87 -123 -42 0 -59 4 -59 13 0 15 58 314 65 335 3 9 56 12 216 12 197 0
211 -1 204 -17z m195 8 c0 -5 -7 -14 -15 -21 -12 -10 -15 -10 -15 2 0 8 3 18
7 21 9 10 23 9 23 -2z m580 -8 c0 -28 -41 -103 -63 -116 -12 -6 -71 -14 -132
-17 -105 -5 -110 -6 -113 -27 -3 -23 -3 -23 132 -23 102 0 136 -3 136 -12 0
-12 -8 -52 -25 -125 -5 -23 -6 -23 -200 -23 -106 0 -196 3 -199 8 -2 4 7 59
20 122 13 63 26 125 28 137 2 12 15 38 30 58 l27 35 180 0 c161 0 179 -2 179
-17z m500 2 c22 -27 -10 -239 -44 -291 -30 -45 -70 -54 -241 -54 -176 0 -163
-9 -142 95 l13 60 139 5 c136 5 140 6 143 28 3 22 3 22 -132 22 -79 0 -136 4
-136 10 0 11 20 110 25 128 7 20 358 17 375 -3z"/>
<path d="M14812 11308 c4 -10 88 -14 368 -16 323 -2 361 -1 350 13 -11 13 -63
15 -367 15 -279 0 -354 -3 -351 -12z"/>
<path d="M15722 11308 c4 -10 84 -14 345 -16 297 -2 342 0 347 13 5 13 -36 15
-345 15 -276 0 -350 -3 -347 -12z"/>
<path d="M16583 11308 c3 -10 39 -13 137 -13 98 0 134 3 138 13 3 9 -29 12
-138 12 -109 0 -141 -3 -137 -12z"/>
<path d="M17140 11305 c0 -13 16 -15 102 -13 70 2 103 7 106 16 3 9 -22 12
-102 12 -89 0 -106 -3 -106 -15z"/>
<path d="M17574 11305 c-17 -13 17 -14 295 -15 277 0 312 2 301 15 -18 22
-566 22 -596 0z"/>
<path d="M18362 11308 c4 -10 44 -14 157 -16 121 -2 152 0 149 10 -4 10 -44
14 -157 16 -121 2 -152 0 -149 -10z"/>
<path d="M18940 11305 c0 -12 18 -15 99 -15 79 0 100 3 105 15 5 13 -10 15
-99 15 -87 0 -105 -3 -105 -15z"/>
<path d="M19322 11308 c4 -10 88 -14 368 -16 323 -2 361 -1 350 13 -11 13 -63
15 -367 15 -279 0 -354 -3 -351 -12z"/>
<path d="M20640 11305 c0 -13 39 -15 317 -13 242 2 317 6 321 16 3 9 -65 12
-317 12 -280 0 -321 -2 -321 -15z"/>
<path d="M21453 11308 c3 -10 39 -13 137 -13 98 0 134 3 138 13 3 9 -29 12
-138 12 -109 0 -141 -3 -137 -12z"/>
<path d="M22010 11305 c0 -13 16 -15 102 -13 70 2 103 7 106 16 3 9 -22 12
-102 12 -89 0 -106 -3 -106 -15z"/>
<path d="M22392 11308 c4 -10 84 -14 345 -16 297 -2 342 0 347 13 5 13 -36 15
-345 15 -276 0 -350 -3 -347 -12z"/>
<path d="M23633 11308 c3 -10 39 -13 137 -13 98 0 134 3 138 13 3 9 -29 12
-138 12 -109 0 -141 -3 -137 -12z"/>
<path d="M24082 11308 c4 -10 48 -14 166 -16 140 -2 162 0 162 13 0 13 -24 15
-166 15 -128 0 -165 -3 -162 -12z"/>
<path d="M24726 11305 c-5 -14 11 -15 126 -13 94 2 133 7 136 16 3 9 -27 12
-126 12 -107 0 -131 -3 -136 -15z"/>
<path d="M25306 11305 c5 -13 38 -15 210 -15 175 0 204 2 204 15 0 13 -30 15
-210 15 -182 0 -209 -2 -204 -15z"/>
<path d="M26184 11305 c-17 -13 19 -14 314 -15 289 0 332 2 332 15 0 22 -616
23 -646 0z"/>
<path d="M27003 11308 c3 -10 39 -13 137 -13 98 0 134 3 138 13 3 9 -29 12
-138 12 -109 0 -141 -3 -137 -12z"/>
<path d="M27452 11308 c4 -10 44 -14 157 -16 121 -2 152 0 149 10 -4 10 -44
14 -157 16 -121 2 -152 0 -149 -10z"/>
<path d="M28030 11305 c0 -12 18 -15 99 -15 79 0 100 3 105 15 5 13 -10 15
-99 15 -87 0 -105 -3 -105 -15z"/>
<path d="M28556 11305 c5 -13 38 -15 210 -15 175 0 204 2 204 15 0 13 -30 15
-210 15 -182 0 -209 -2 -204 -15z"/>
<path d="M29230 11305 c0 -13 39 -15 317 -13 242 2 317 6 321 16 3 9 -65 12
-317 12 -280 0 -321 -2 -321 -15z"/>
<path d="M30033 11308 c3 -10 39 -13 137 -13 98 0 134 3 138 13 3 9 -29 12
-138 12 -109 0 -141 -3 -137 -12z"/>
<path d="M30534 11305 c-17 -13 17 -14 295 -15 277 0 312 2 301 15 -18 22
-566 22 -596 0z"/>
<path d="M31322 11308 c4 -10 44 -14 157 -16 121 -2 152 0 149 10 -4 10 -44
14 -157 16 -121 2 -152 0 -149 -10z"/>
<path d="M31900 11305 c0 -12 18 -15 99 -15 79 0 100 3 105 15 5 13 -10 15
-99 15 -87 0 -105 -3 -105 -15z"/>
<path d="M32660 11305 c0 -13 16 -15 102 -13 70 2 103 7 106 16 3 9 -22 12
-102 12 -89 0 -106 -3 -106 -15z"/>
<path d="M33040 11305 c0 -13 16 -15 102 -13 70 2 103 7 106 16 3 9 -22 12
-102 12 -89 0 -106 -3 -106 -15z"/>
<path d="M14836 11245 c5 -13 52 -15 362 -13 273 2 356 6 360 16 3 9 -74 12
-362 12 -322 0 -365 -2 -360 -15z"/>
<path d="M15746 11245 c5 -13 51 -15 324 -15 273 0 319 2 324 15 5 13 -35 15
-324 15 -289 0 -329 -2 -324 -15z"/>
<path d="M16607 11245 c4 -13 24 -15 116 -13 77 2 112 7 115 16 3 9 -25 12
-117 12 -104 0 -120 -2 -114 -15z"/>
<path d="M17127 11253 c-19 -18 2 -23 98 -23 87 0 105 3 105 15 0 12 -18 15
-98 15 -54 0 -102 -3 -105 -7z"/>
<path d="M17506 11245 c-5 -13 38 -15 344 -15 304 0 350 2 350 15 0 13 -45 15
-344 15 -296 0 -345 -2 -350 -15z"/>
<path d="M18386 11245 c5 -13 31 -15 161 -15 119 0 154 3 151 13 -4 9 -47 13
-161 15 -137 2 -156 1 -151 -13z"/>
<path d="M18920 11245 c0 -13 16 -15 102 -13 70 2 103 7 106 16 3 9 -22 12
-102 12 -89 0 -106 -3 -106 -15z"/>
<path d="M19346 11245 c5 -13 52 -15 362 -13 273 2 356 6 360 16 3 9 -74 12
-362 12 -322 0 -365 -2 -360 -15z"/>
<path d="M20627 11253 c-4 -3 -7 -10 -7 -15 0 -4 143 -7 317 -6 242 2 317 6
321 16 3 9 -64 12 -310 12 -173 0 -318 -3 -321 -7z"/>
<path d="M21477 11245 c4 -13 24 -15 116 -13 77 2 112 7 115 16 3 9 -25 12
-117 12 -104 0 -120 -2 -114 -15z"/>
<path d="M21997 11253 c-19 -18 2 -23 98 -23 87 0 105 3 105 15 0 12 -18 15
-98 15 -54 0 -102 -3 -105 -7z"/>
<path d="M22416 11245 c5 -13 51 -15 324 -15 273 0 319 2 324 15 5 13 -35 15
-324 15 -289 0 -329 -2 -324 -15z"/>
<path d="M23657 11245 c4 -13 24 -15 116 -13 77 2 112 7 115 16 3 9 -25 12
-117 12 -104 0 -120 -2 -114 -15z"/>
<path d="M24106 11245 c5 -12 33 -15 165 -15 135 0 159 2 159 15 0 13 -25 15
-165 15 -142 0 -164 -2 -159 -15z"/>
<path d="M24670 11245 c-12 -14 4 -15 140 -13 112 2 154 6 158 16 6 20 -281
17 -298 -3z"/>
<path d="M25330 11245 c0 -13 29 -15 200 -15 171 0 200 2 200 15 0 13 -29 15
-200 15 -171 0 -200 -2 -200 -15z"/>
<path d="M26116 11245 c-5 -13 35 -15 341 -13 266 2 347 6 351 16 3 9 -70 12
-341 12 -299 0 -346 -2 -351 -15z"/>
<path d="M27027 11245 c4 -13 24 -15 116 -13 77 2 112 7 115 16 3 9 -25 12
-117 12 -104 0 -120 -2 -114 -15z"/>
<path d="M27476 11245 c5 -13 31 -15 161 -15 119 0 154 3 151 13 -4 9 -47 13
-161 15 -137 2 -156 1 -151 -13z"/>
<path d="M28010 11245 c0 -13 16 -15 102 -13 70 2 103 7 106 16 3 9 -22 12
-102 12 -89 0 -106 -3 -106 -15z"/>
<path d="M28580 11245 c0 -13 29 -15 200 -15 171 0 200 2 200 15 0 13 -29 15
-200 15 -171 0 -200 -2 -200 -15z"/>
<path d="M29217 11253 c-4 -3 -7 -10 -7 -15 0 -4 143 -7 317 -6 242 2 317 6
321 16 3 9 -64 12 -310 12 -173 0 -318 -3 -321 -7z"/>
<path d="M30057 11245 c4 -13 24 -15 116 -13 77 2 112 7 115 16 3 9 -25 12
-117 12 -104 0 -120 -2 -114 -15z"/>
<path d="M30466 11245 c-5 -13 38 -15 344 -15 304 0 350 2 350 15 0 13 -45 15
-344 15 -296 0 -345 -2 -350 -15z"/>
<path d="M31346 11245 c5 -13 31 -15 161 -15 119 0 154 3 151 13 -4 9 -47 13
-161 15 -137 2 -156 1 -151 -13z"/>
<path d="M31880 11245 c0 -13 16 -15 102 -13 70 2 103 7 106 16 3 9 -22 12
-102 12 -89 0 -106 -3 -106 -15z"/>
<path d="M32647 11253 c-19 -18 2 -23 98 -23 87 0 105 3 105 15 0 12 -18 15
-98 15 -54 0 -102 -3 -105 -7z"/>
<path d="M33027 11253 c-19 -18 2 -23 98 -23 87 0 105 3 105 15 0 12 -18 15
-98 15 -54 0 -102 -3 -105 -7z"/>
<path d="M14846 11184 c-3 -9 -6 -18 -6 -20 0 -2 158 -4 350 -4 343 0 350 0
350 20 0 20 -7 20 -344 20 -304 0 -345 -2 -350 -16z"/>
<path d="M15756 11184 c-3 -9 -6 -18 -6 -20 0 -2 135 -4 300 -4 289 0 300 1
310 20 11 20 8 20 -294 20 -268 0 -305 -2 -310 -16z"/>
<path d="M16616 11184 c-3 -9 -6 -18 -6 -20 0 -2 47 -4 105 -4 98 0 105 1 105
20 0 19 -7 20 -99 20 -81 0 -100 -3 -105 -16z"/>
<path d="M17106 11184 c-3 -9 -6 -18 -6 -20 0 -2 47 -4 105 -4 98 0 105 1 105
20 0 19 -7 20 -99 20 -81 0 -100 -3 -105 -16z"/>
<path d="M17486 11184 c-3 -9 -6 -18 -6 -20 0 -2 157 -4 349 -4 340 0 349 0
354 20 5 20 0 20 -343 20 -308 0 -349 -2 -354 -16z"/>
<path d="M18396 11184 c-3 -9 -6 -18 -6 -20 0 -2 79 -4 175 -4 173 0 176 0
165 20 -10 19 -21 20 -169 20 -136 0 -160 -2 -165 -16z"/>
<path d="M18907 11193 c-4 -3 -7 -12 -7 -20 0 -11 21 -13 102 -11 89 3 103 5
106 21 3 15 -7 17 -96 17 -54 0 -102 -3 -105 -7z"/>
<path d="M19356 11184 c-3 -9 -6 -18 -6 -20 0 -2 158 -4 350 -4 343 0 350 0
350 20 0 20 -7 20 -344 20 -304 0 -345 -2 -350 -16z"/>
<path d="M20606 11184 c-3 -9 -6 -18 -6 -20 0 -2 136 -4 303 -4 297 0 327 3
327 32 0 4 -139 8 -309 8 -272 0 -310 -2 -315 -16z"/>
<path d="M21486 11184 c-3 -9 -6 -18 -6 -20 0 -2 47 -4 105 -4 98 0 105 1 105
20 0 19 -7 20 -99 20 -81 0 -100 -3 -105 -16z"/>
<path d="M21976 11184 c-3 -9 -6 -18 -6 -20 0 -2 47 -4 105 -4 98 0 105 1 105
20 0 19 -7 20 -99 20 -81 0 -100 -3 -105 -16z"/>
<path d="M22426 11184 c-3 -9 -6 -18 -6 -20 0 -2 135 -4 300 -4 289 0 300 1
310 20 11 20 8 20 -294 20 -268 0 -305 -2 -310 -16z"/>
<path d="M23666 11184 c-3 -9 -6 -18 -6 -20 0 -2 47 -4 105 -4 98 0 105 1 105
20 0 19 -7 20 -99 20 -81 0 -100 -3 -105 -16z"/>
<path d="M24116 11184 c-3 -8 -6 -18 -6 -20 0 -2 77 -4 171 -4 157 0 170 1
167 18 -3 15 -20 17 -164 20 -141 2 -162 0 -168 -14z"/>
<path d="M24615 11180 c-18 -20 -17 -20 158 -20 170 0 177 1 177 20 0 19 -7
20 -158 20 -146 0 -160 -2 -177 -20z"/>
<path d="M25330 11180 c-11 -20 -8 -20 200 -20 203 0 210 1 210 20 0 19 -7 20
-200 20 -189 0 -200 -1 -210 -20z"/>
<path d="M26096 11184 c-3 -9 -6 -18 -6 -20 0 -2 150 -4 333 -4 321 0 335 1
352 20 18 20 17 20 -327 20 -306 0 -347 -2 -352 -16z"/>
<path d="M27036 11184 c-3 -9 -6 -18 -6 -20 0 -2 47 -4 105 -4 98 0 105 1 105
20 0 19 -7 20 -99 20 -81 0 -100 -3 -105 -16z"/>
<path d="M27486 11184 c-3 -9 -6 -18 -6 -20 0 -2 79 -4 175 -4 173 0 176 0
165 20 -10 19 -21 20 -169 20 -136 0 -160 -2 -165 -16z"/>
<path d="M27997 11193 c-4 -3 -7 -12 -7 -20 0 -11 21 -13 102 -11 89 3 103 5
106 21 3 15 -7 17 -96 17 -54 0 -102 -3 -105 -7z"/>
<path d="M28580 11180 c-11 -20 -8 -20 200 -20 203 0 210 1 210 20 0 19 -7 20
-200 20 -189 0 -200 -1 -210 -20z"/>
<path d="M29196 11184 c-3 -9 -6 -18 -6 -20 0 -2 136 -4 303 -4 297 0 327 3
327 32 0 4 -139 8 -309 8 -272 0 -310 -2 -315 -16z"/>
<path d="M30066 11184 c-3 -9 -6 -18 -6 -20 0 -2 47 -4 105 -4 98 0 105 1 105
20 0 19 -7 20 -99 20 -81 0 -100 -3 -105 -16z"/>
<path d="M30446 11184 c-3 -9 -6 -18 -6 -20 0 -2 157 -4 349 -4 340 0 349 0
354 20 5 20 0 20 -343 20 -308 0 -349 -2 -354 -16z"/>
<path d="M31356 11184 c-3 -9 -6 -18 -6 -20 0 -2 79 -4 175 -4 173 0 176 0
165 20 -10 19 -21 20 -169 20 -136 0 -160 -2 -165 -16z"/>
<path d="M31867 11193 c-4 -3 -7 -12 -7 -20 0 -11 21 -13 102 -11 89 3 103 5
106 21 3 15 -7 17 -96 17 -54 0 -102 -3 -105 -7z"/>
<path d="M32626 11184 c-3 -9 -6 -18 -6 -20 0 -2 47 -4 105 -4 98 0 105 1 105
20 0 19 -7 20 -99 20 -81 0 -100 -3 -105 -16z"/>
<path d="M33006 11184 c-3 -9 -6 -18 -6 -20 0 -2 47 -4 105 -4 98 0 105 1 105
20 0 19 -7 20 -99 20 -81 0 -100 -3 -105 -16z"/>
<path d="M14826 11124 c-3 -9 -6 -18 -6 -20 0 -2 47 -4 104 -4 95 0 104 2 109
20 5 19 0 20 -98 20 -85 0 -104 -3 -109 -16z"/>
<path d="M15317 11120 c-5 -19 0 -20 98 -20 94 0 103 2 108 20 5 19 0 20 -98
20 -94 0 -103 -2 -108 -20z"/>
<path d="M15736 11124 c-3 -9 -6 -18 -6 -20 0 -2 47 -4 104 -4 95 0 104 2 109
20 5 19 0 20 -98 20 -85 0 -104 -3 -109 -16z"/>
<path d="M16597 11120 c-5 -19 0 -20 98 -20 94 0 103 2 108 20 5 19 0 20 -98
20 -94 0 -103 -2 -108 -20z"/>
<path d="M17087 11120 c-5 -19 0 -20 98 -20 94 0 103 2 108 20 5 19 0 20 -98
20 -94 0 -103 -2 -108 -20z"/>
<path d="M17467 11120 c-5 -19 0 -20 98 -20 94 0 103 2 108 20 5 19 0 20 -98
20 -94 0 -103 -2 -108 -20z"/>
<path d="M17957 11120 c-5 -19 0 -20 98 -20 94 0 103 2 108 20 5 19 0 20 -98
20 -94 0 -103 -2 -108 -20z"/>
<path d="M18376 11124 c-3 -9 -6 -18 -6 -20 0 -2 90 -4 200 -4 110 0 200 2
200 4 0 2 -3 11 -6 20 -5 14 -32 16 -194 16 -162 0 -189 -2 -194 -16z"/>
<path d="M18886 11124 c-3 -9 -6 -18 -6 -20 0 -3 46 -3 102 -2 89 3 103 5 106
21 3 15 -7 17 -96 17 -82 0 -101 -3 -106 -16z"/>
<path d="M19336 11124 c-3 -9 -6 -18 -6 -20 0 -2 47 -4 104 -4 95 0 104 2 109
20 5 19 0 20 -98 20 -85 0 -104 -3 -109 -16z"/>
<path d="M19827 11120 c-5 -19 0 -20 98 -20 94 0 103 2 108 20 5 19 0 20 -98
20 -94 0 -103 -2 -108 -20z"/>
<path d="M20807 11133 c-4 -3 -7 -12 -7 -20 0 -10 23 -13 99 -13 96 0 111 5
111 36 0 7 -196 4 -203 -3z"/>
<path d="M21466 11124 c-3 -9 -6 -18 -6 -20 0 -2 47 -4 104 -4 95 0 104 2 109
20 5 19 0 20 -98 20 -85 0 -104 -3 -109 -16z"/>
<path d="M21957 11120 c-5 -19 0 -20 98 -20 94 0 103 2 108 20 5 19 0 20 -98
20 -94 0 -103 -2 -108 -20z"/>
<path d="M22406 11124 c-3 -9 -6 -18 -6 -20 0 -2 47 -4 104 -4 95 0 104 2 109
20 5 19 0 20 -98 20 -85 0 -104 -3 -109 -16z"/>
<path d="M23646 11124 c-3 -9 -6 -18 -6 -20 0 -2 47 -4 104 -4 95 0 104 2 109
20 5 19 0 20 -98 20 -85 0 -104 -3 -109 -16z"/>
<path d="M24096 11124 c-3 -9 -6 -18 -6 -20 0 -2 86 -4 190 -4 105 0 190 2
190 4 0 2 -3 11 -6 20 -5 14 -31 16 -184 16 -153 0 -179 -2 -184 -16z"/>
<path d="M24565 11120 c-18 -20 -17 -20 172 -20 182 0 191 1 196 20 5 19 0 20
-172 20 -165 0 -179 -1 -196 -20z"/>
<path d="M25282 11120 c-12 -20 -10 -20 102 -20 92 0 115 3 120 15 3 8 10 15
16 15 5 0 10 -7 10 -15 0 -12 19 -15 111 -15 100 0 110 2 107 18 -3 15 -23 17
-228 20 -216 2 -225 2 -238 -18z"/>
<path d="M26077 11120 c-5 -19 0 -20 98 -20 94 0 103 2 108 20 5 19 0 20 -98
20 -94 0 -103 -2 -108 -20z"/>
<path d="M27016 11124 c-3 -9 -6 -18 -6 -20 0 -2 47 -4 104 -4 95 0 104 2 109
20 5 19 0 20 -98 20 -85 0 -104 -3 -109 -16z"/>
<path d="M27466 11124 c-3 -9 -6 -18 -6 -20 0 -2 90 -4 200 -4 110 0 200 2
200 4 0 2 -3 11 -6 20 -5 14 -32 16 -194 16 -162 0 -189 -2 -194 -16z"/>
<path d="M27976 11124 c-3 -9 -6 -18 -6 -20 0 -3 46 -3 102 -2 89 3 103 5 106
21 3 15 -7 17 -96 17 -82 0 -101 -3 -106 -16z"/>
<path d="M28532 11120 c-12 -20 -10 -20 102 -20 92 0 115 3 120 15 3 8 10 15
16 15 5 0 10 -7 10 -15 0 -12 19 -15 111 -15 100 0 110 2 107 18 -3 15 -23 17
-228 20 -216 2 -225 2 -238 -18z"/>
<path d="M29397 11133 c-4 -3 -7 -12 -7 -20 0 -10 23 -13 99 -13 96 0 111 5
111 36 0 7 -196 4 -203 -3z"/>
<path d="M30046 11124 c-3 -9 -6 -18 -6 -20 0 -2 47 -4 104 -4 95 0 104 2 109
20 5 19 0 20 -98 20 -85 0 -104 -3 -109 -16z"/>
<path d="M30427 11120 c-5 -19 0 -20 98 -20 94 0 103 2 108 20 5 19 0 20 -98
20 -94 0 -103 -2 -108 -20z"/>
<path d="M30917 11120 c-5 -19 0 -20 98 -20 94 0 103 2 108 20 5 19 0 20 -98
20 -94 0 -103 -2 -108 -20z"/>
<path d="M31336 11124 c-3 -9 -6 -18 -6 -20 0 -2 90 -4 200 -4 110 0 200 2
200 4 0 2 -3 11 -6 20 -5 14 -32 16 -194 16 -162 0 -189 -2 -194 -16z"/>
<path d="M31846 11124 c-3 -9 -6 -18 -6 -20 0 -3 46 -3 102 -2 89 3 103 5 106
21 3 15 -7 17 -96 17 -82 0 -101 -3 -106 -16z"/>
<path d="M32607 11120 c-5 -19 0 -20 98 -20 94 0 103 2 108 20 5 19 0 20 -98
20 -94 0 -103 -2 -108 -20z"/>
<path d="M32987 11120 c-5 -19 0 -20 98 -20 94 0 103 2 108 20 5 19 0 20 -98
20 -94 0 -103 -2 -108 -20z"/>
<path d="M14808 11055 l-5 -25 332 0 332 0 23 25 23 25 -350 0 -351 0 -4 -25z"/>
<path d="M15718 11055 l-5 -25 280 2 280 3 8 23 8 22 -283 0 -284 0 -4 -25z"/>
<path d="M16578 11055 l-5 -25 103 0 c57 0 104 4 104 9 0 5 3 16 6 25 5 14 -7
16 -99 16 -104 0 -105 0 -109 -25z"/>
<path d="M17071 11058 c-8 -23 -7 -23 92 -26 55 -1 101 -1 102 0 1 2 6 13 9
26 7 22 6 22 -94 22 -95 0 -101 -1 -109 -22z"/>
<path d="M17448 11055 l-5 -25 103 0 c57 0 104 4 104 9 0 5 3 16 6 25 5 14 -7
16 -99 16 -104 0 -105 0 -109 -25z"/>
<path d="M17947 11073 c-4 -3 -7 -15 -7 -25 0 -16 10 -18 100 -18 55 0 100 4
100 9 0 5 3 16 6 25 5 14 -7 16 -93 16 -55 0 -103 -3 -106 -7z"/>
<path d="M18358 11055 l-5 -25 228 0 229 0 -12 25 -11 25 -212 0 -213 0 -4
-25z"/>
<path d="M18870 11071 c0 -5 -3 -17 -6 -26 -6 -14 5 -15 96 -13 96 3 103 4
111 26 8 22 8 22 -96 22 -58 0 -105 -4 -105 -9z"/>
<path d="M19318 11055 l-5 -25 103 0 c57 0 104 4 104 9 0 5 3 16 6 25 5 14 -7
16 -99 16 -104 0 -105 0 -109 -25z"/>
<path d="M19811 11058 c-8 -23 -7 -23 92 -26 55 -1 101 -1 102 0 1 2 6 13 9
26 7 22 6 22 -94 22 -95 0 -101 -1 -109 -22z"/>
<path d="M20786 11064 c-12 -32 -5 -35 97 -32 97 3 102 4 105 26 3 22 1 22
-96 22 -82 0 -101 -3 -106 -16z"/>
<path d="M21448 11055 l-5 -25 348 0 c205 0 349 4 349 9 0 5 3 16 6 25 6 14
-29 16 -344 16 l-350 0 -4 -25z"/>
<path d="M22388 11055 l-5 -25 280 2 280 3 8 23 8 22 -283 0 -284 0 -4 -25z"/>
<path d="M23628 11055 l-5 -25 103 0 c57 0 104 4 104 9 0 5 3 16 6 25 5 14 -7
16 -99 16 -104 0 -105 0 -109 -25z"/>
<path d="M24078 11055 l-5 -25 418 0 c248 0 419 4 419 9 0 5 3 16 6 25 5 14
-16 16 -194 16 -196 0 -200 0 -215 -22 l-16 -23 -7 23 c-6 22 -8 22 -204 22
l-198 0 -4 -25z"/>
<path d="M25236 11055 l-16 -25 112 0 c108 1 114 2 131 25 l18 25 -114 0
c-111 0 -115 -1 -131 -25z"/>
<path d="M25530 11071 c0 -37 11 -41 121 -41 60 0 109 4 109 9 0 37 -11 41
-121 41 -60 0 -109 -4 -109 -9z"/>
<path d="M26058 11055 l-5 -25 103 0 c57 0 104 4 104 9 0 5 3 16 6 25 5 14 -7
16 -99 16 -104 0 -105 0 -109 -25z"/>
<path d="M26998 11055 l-5 -25 103 0 c57 0 104 4 104 9 0 5 3 16 6 25 5 14 -7
16 -99 16 -104 0 -105 0 -109 -25z"/>
<path d="M27448 11055 l-5 -25 228 0 229 0 -12 25 -11 25 -212 0 -213 0 -4
-25z"/>
<path d="M27960 11071 c0 -5 -3 -17 -6 -26 -6 -14 5 -15 96 -13 96 3 103 4
111 26 8 22 8 22 -96 22 -58 0 -105 -4 -105 -9z"/>
<path d="M28486 11055 l-16 -25 112 0 c108 1 114 2 131 25 l18 25 -114 0
c-111 0 -115 -1 -131 -25z"/>
<path d="M28780 11071 c0 -37 11 -41 121 -41 60 0 109 4 109 9 0 37 -11 41
-121 41 -60 0 -109 -4 -109 -9z"/>
<path d="M29376 11064 c-12 -32 -5 -35 97 -32 97 3 102 4 105 26 3 22 1 22
-96 22 -82 0 -101 -3 -106 -16z"/>
<path d="M30028 11055 l-5 -25 103 0 c57 0 104 4 104 9 0 5 3 16 6 25 5 14 -7
16 -99 16 -104 0 -105 0 -109 -25z"/>
<path d="M30408 11055 l-5 -25 103 0 c57 0 104 4 104 9 0 5 3 16 6 25 5 14 -7
16 -99 16 -104 0 -105 0 -109 -25z"/>
<path d="M30907 11073 c-4 -3 -7 -15 -7 -25 0 -16 10 -18 100 -18 55 0 100 4
100 9 0 5 3 16 6 25 5 14 -7 16 -93 16 -55 0 -103 -3 -106 -7z"/>
<path d="M31318 11055 l-5 -25 228 0 229 0 -12 25 -11 25 -212 0 -213 0 -4
-25z"/>
<path d="M31830 11071 c0 -5 -3 -17 -6 -26 -6 -14 5 -15 96 -13 96 3 103 4
111 26 8 22 8 22 -96 22 -58 0 -105 -4 -105 -9z"/>
<path d="M32588 11055 l-5 -25 103 0 c57 0 104 4 104 9 0 5 3 16 6 25 5 14 -7
16 -99 16 -104 0 -105 0 -109 -25z"/>
<path d="M32968 11055 l-5 -25 103 0 c57 0 104 4 104 9 0 5 3 16 6 25 5 14 -7
16 -99 16 -104 0 -105 0 -109 -25z"/>
<path d="M26595 11040 l-130 -6 143 -2 c89 -1 142 2 142 8 0 6 -6 9 -12 8 -7
-1 -71 -5 -143 -8z"/>
<path d="M14791 10998 l-8 -23 335 -3 c184 -1 338 0 341 4 3 3 -2 11 -11 18
-10 7 -15 16 -11 19 3 4 -139 7 -316 7 l-322 0 -8 -22z"/>
<path d="M15701 10998 l-8 -23 280 -3 c154 -1 281 -1 282 0 2 2 6 13 9 26 l7
22 -281 0 -281 0 -8 -22z"/>
<path d="M16561 10998 l-8 -23 345 -3 c270 -2 347 1 354 10 23 37 18 38 -337
38 l-346 0 -8 -22z"/>
<path d="M21431 10998 l-8 -23 345 -3 c270 -2 347 1 354 10 23 37 18 38 -337
38 l-346 0 -8 -22z"/>
<path d="M22371 10998 l-8 -23 280 -3 c154 -1 281 -1 282 0 2 2 6 13 9 26 l7
22 -281 0 -281 0 -8 -22z"/>
<path d="M32571 10998 c-8 -23 -7 -23 92 -26 74 -2 103 1 109 10 21 33 9 38
-92 38 -95 0 -101 -1 -109 -22z"/>
<path d="M32951 10998 c-8 -23 -7 -23 92 -26 74 -2 103 1 109 10 21 33 9 38
-92 38 -95 0 -101 -1 -109 -22z"/>
<path d="M17431 10988 c-8 -23 -7 -23 92 -26 74 -2 103 1 109 10 21 33 9 38
-92 38 -95 0 -101 -1 -109 -22z"/>
<path d="M17926 10994 c-12 -31 -4 -34 93 -34 99 0 111 4 111 41 0 5 -45 9
-99 9 -81 0 -100 -3 -105 -16z"/>
<path d="M18341 10988 c-8 -23 -7 -23 92 -26 55 -1 101 -1 102 0 1 2 6 13 9
26 7 22 6 22 -94 22 -95 0 -101 -1 -109 -22z"/>
<path d="M18582 10985 l11 -25 229 0 c132 0 228 4 228 9 0 5 3 16 6 25 5 14
-7 16 -100 16 -99 0 -106 -1 -106 -20 0 -11 -4 -20 -9 -20 -5 0 -13 9 -16 20
-6 19 -15 20 -130 20 l-125 0 12 -25z"/>
<path d="M19301 10988 c-8 -23 -7 -23 92 -26 55 -1 101 -1 102 0 1 2 6 13 9
26 7 22 6 22 -94 22 -95 0 -101 -1 -109 -22z"/>
<path d="M19791 10988 c-8 -23 -7 -23 92 -26 74 -2 103 1 109 10 21 33 9 38
-92 38 -95 0 -101 -1 -109 -22z"/>
<path d="M20766 10994 c-12 -32 -5 -35 95 -32 95 3 102 4 110 26 8 22 8 22
-95 22 -86 0 -105 -3 -110 -16z"/>
<path d="M23611 10988 c-8 -23 -7 -23 92 -26 55 -1 101 -1 102 0 1 2 6 13 9
26 7 22 6 22 -94 22 -95 0 -101 -1 -109 -22z"/>
<path d="M24063 10993 c-3 -10 -8 -21 -10 -25 -2 -5 43 -8 101 -8 100 0 105 1
112 22 l7 23 8 -23 c8 -22 11 -22 190 -22 159 0 185 2 202 18 19 16 20 16 14
0 -6 -16 3 -18 98 -18 58 0 105 4 105 9 0 5 3 16 6 25 6 14 -35 16 -410 16
-388 0 -417 -1 -423 -17z"/>
<path d="M25197 10992 c-10 -10 -17 -22 -17 -26 0 -3 50 -5 111 -4 103 3 113
5 127 26 l14 22 -109 0 c-94 0 -112 -3 -126 -18z"/>
<path d="M25542 10988 c3 -22 7 -23 116 -26 66 -1 112 1 112 7 0 37 -11 41
-122 41 -108 0 -109 0 -106 -22z"/>
<path d="M26041 10988 c-8 -23 -7 -23 92 -26 74 -2 103 1 109 10 21 33 9 38
-92 38 -95 0 -101 -1 -109 -22z"/>
<path d="M26484 10994 c3 -9 6 -20 6 -25 0 -5 53 -9 119 -9 121 0 131 3 131
41 0 5 -58 9 -131 9 -115 0 -130 -2 -125 -16z"/>
<path d="M26981 10988 c-8 -23 -7 -23 92 -26 55 -1 101 -1 102 0 1 2 6 13 9
26 7 22 6 22 -94 22 -95 0 -101 -1 -109 -22z"/>
<path d="M27431 10988 c-8 -23 -7 -23 92 -26 55 -1 101 -1 102 0 1 2 6 13 9
26 7 22 6 22 -94 22 -95 0 -101 -1 -109 -22z"/>
<path d="M27672 10985 l11 -25 229 0 c132 0 228 4 228 9 0 5 3 16 6 25 5 14
-7 16 -100 16 -99 0 -106 -1 -106 -20 0 -11 -4 -20 -9 -20 -5 0 -13 9 -16 20
-6 19 -15 20 -130 20 l-125 0 12 -25z"/>
<path d="M28447 10992 c-10 -10 -17 -22 -17 -26 0 -3 50 -5 111 -4 103 3 113
5 127 26 l14 22 -109 0 c-94 0 -112 -3 -126 -18z"/>
<path d="M28792 10988 c3 -22 7 -23 116 -26 66 -1 112 1 112 7 0 37 -11 41
-122 41 -108 0 -109 0 -106 -22z"/>
<path d="M29356 10994 c-12 -32 -5 -35 95 -32 95 3 102 4 110 26 8 22 8 22
-95 22 -86 0 -105 -3 -110 -16z"/>
<path d="M30011 10988 c-8 -23 -7 -23 92 -26 55 -1 101 -1 102 0 1 2 6 13 9
26 7 22 6 22 -94 22 -95 0 -101 -1 -109 -22z"/>
<path d="M30391 10988 c-8 -23 -7 -23 92 -26 74 -2 103 1 109 10 21 33 9 38
-92 38 -95 0 -101 -1 -109 -22z"/>
<path d="M30886 10994 c-12 -31 -4 -34 93 -34 99 0 111 4 111 41 0 5 -45 9
-99 9 -81 0 -100 -3 -105 -16z"/>
<path d="M31301 10988 c-8 -23 -7 -23 92 -26 55 -1 101 -1 102 0 1 2 6 13 9
26 7 22 6 22 -94 22 -95 0 -101 -1 -109 -22z"/>
<path d="M31542 10985 l11 -25 229 0 c132 0 228 4 228 9 0 5 3 16 6 25 5 14
-7 16 -100 16 -99 0 -106 -1 -106 -20 0 -11 -4 -20 -9 -20 -5 0 -13 9 -16 20
-6 19 -15 20 -130 20 l-125 0 12 -25z"/>
<path d="M14764 10903 c-21 -77 -54 -194 -60 -215 -5 -17 14 -18 293 -18 268
0 302 2 339 19 22 10 50 31 62 46 20 26 53 120 68 193 l7 32 -346 0 -346 0
-17 -57z m487 -20 l-7 -28 -142 -3 c-78 -1 -142 1 -142 5 0 5 3 18 6 31 6 22
9 22 149 22 l143 0 -7 -27z"/>
<path d="M15674 10903 c-21 -78 -54 -194 -60 -216 -5 -16 13 -17 307 -15 l312
3 23 80 c13 44 24 83 24 88 0 4 -93 7 -206 7 l-206 0 6 23 c3 12 6 25 6 30 0
4 81 7 179 7 184 0 191 1 191 41 0 5 -117 9 -280 9 l-279 0 -17 -57z"/>
<path d="M16550 10929 c0 -66 38 -89 146 -89 35 0 64 -1 64 -3 0 -2 -11 -40
-24 -85 l-24 -82 103 0 104 0 16 58 c33 118 21 106 116 113 109 7 154 31 188
97 l12 22 -351 0 -350 0 0 -31z"/>
<path d="M21404 10903 c-21 -77 -54 -194 -60 -215 -5 -16 4 -18 98 -18 l103 0
34 120 33 120 144 0 143 0 -10 -32 c-5 -18 -19 -67 -30 -108 -12 -41 -23 -80
-26 -87 -4 -10 18 -13 98 -13 l104 0 41 145 41 145 -348 0 -348 0 -17 -57z"/>
<path d="M22344 10903 c-21 -78 -54 -194 -60 -216 -5 -16 13 -17 307 -15 l312
3 23 80 c13 44 24 83 24 88 0 4 -93 7 -206 7 l-206 0 6 23 c3 12 6 25 6 30 0
4 81 7 179 7 184 0 191 1 191 41 0 5 -117 9 -280 9 l-279 0 -17 -57z"/>
<path d="M32560 10951 c0 -5 -3 -16 -6 -25 -5 -14 7 -16 99 -16 104 0 105 0
109 25 l5 25 -103 0 c-57 0 -104 -4 -104 -9z"/>
<path d="M32940 10951 c0 -5 -3 -16 -6 -25 -5 -14 7 -16 99 -16 104 0 105 0
109 25 l5 25 -103 0 c-57 0 -104 -4 -104 -9z"/>
<path d="M17401 10882 c-29 -96 -34 -127 -27 -157 12 -48 50 -55 313 -55 131
0 254 5 273 10 61 17 96 64 128 173 l29 97 -102 0 -101 0 -15 -47 -15 -48
-142 -3 c-80 -1 -142 1 -142 6 0 5 7 28 15 51 l14 41 -104 0 -104 0 -20 -68z"/>
<path d="M18310 10878 c-12 -40 -30 -102 -41 -137 -10 -35 -19 -65 -19 -67 0
-2 46 -4 103 -4 l102 0 38 133 c21 72 38 135 37 140 0 4 -45 7 -100 7 l-99 0
-21 -72z"/>
<path d="M18671 10810 l72 -141 110 3 110 3 38 130 c21 72 39 133 39 138 0 4
-99 7 -221 7 l-220 0 72 -140z"/>
<path d="M19270 10878 c-12 -40 -30 -102 -41 -137 -10 -35 -19 -65 -19 -67 0
-10 585 -3 621 7 60 18 94 62 123 160 14 47 26 90 26 97 0 9 -29 12 -99 12
l-100 0 -13 -47 -14 -48 -143 -3 -143 -3 6 23 c4 13 9 35 12 51 l7 27 -101 0
-101 0 -21 -72z"/>
<path d="M20701 10762 c-29 -103 -56 -192 -58 -199 -4 -9 21 -13 91 -15 l95
-3 -92 -145 c-51 -80 -97 -152 -102 -160 -12 -20 118 99 300 274 l150 145
-102 1 c-57 0 -103 2 -103 5 0 7 70 253 77 273 4 9 -20 12 -98 12 l-104 0 -54
-188z"/>
<path d="M23580 10878 c-12 -40 -30 -102 -41 -137 -10 -35 -19 -65 -19 -67 0
-2 46 -4 103 -4 l102 0 38 133 c21 72 38 135 37 140 0 4 -45 7 -100 7 l-99 0
-21 -72z"/>
<path d="M24030 10878 c-12 -40 -30 -102 -41 -137 -10 -35 -19 -65 -19 -67 0
-2 46 -4 103 -4 l102 0 38 133 c21 72 38 135 37 140 0 4 -45 7 -100 7 l-99 0
-21 -72z"/>
<path d="M24292 10938 c3 -7 22 -70 43 -140 22 -76 43 -128 50 -128 11 0 229
234 249 268 6 9 -31 12 -169 12 -138 0 -176 -3 -173 -12z"/>
<path d="M24660 10878 c-12 -40 -30 -102 -41 -137 -10 -35 -19 -65 -19 -67 0
-3 46 -3 102 -2 l102 3 38 125 c21 69 38 131 38 138 0 9 -26 12 -100 12 l-99
0 -21 -72z"/>
<path d="M25101 10857 c-36 -50 -100 -139 -143 -197 l-76 -105 129 -5 129 -5
-101 -159 -101 -159 59 51 c32 29 137 128 233 221 l175 170 -107 1 -108 0 32
45 32 45 161 -2 160 -3 5 -40 5 -40 113 -3 c86 -2 112 0 112 10 0 12 -21 151
-35 234 l-5 31 -301 0 -301 0 -67 -90z"/>
<path d="M26011 10882 c-29 -96 -34 -127 -27 -157 13 -50 46 -55 369 -55 l293
0 41 140 41 140 -114 0 c-114 0 -114 0 -109 -23 4 -12 1 -35 -4 -50 l-11 -27
-140 0 c-77 0 -140 4 -140 9 0 5 7 27 15 50 l14 41 -104 0 -104 0 -20 -68z"/>
<path d="M26950 10878 c-12 -40 -30 -102 -41 -137 -10 -35 -19 -65 -19 -67 0
-2 46 -4 103 -4 l102 0 38 133 c21 72 38 135 37 140 0 4 -45 7 -100 7 l-99 0
-21 -72z"/>
<path d="M27400 10878 c-12 -40 -30 -102 -41 -137 -10 -35 -19 -65 -19 -67 0
-2 46 -4 103 -4 l102 0 38 133 c21 72 38 135 37 140 0 4 -45 7 -100 7 l-99 0
-21 -72z"/>
<path d="M27761 10810 l72 -141 110 3 110 3 38 130 c21 72 39 133 39 138 0 4
-99 7 -221 7 l-220 0 72 -140z"/>
<path d="M28351 10857 c-36 -50 -100 -139 -143 -197 l-76 -105 129 -5 129 -5
-101 -159 -101 -159 59 51 c32 29 137 128 233 221 l175 170 -107 1 -108 0 32
45 32 45 161 -2 160 -3 5 -40 5 -40 113 -3 c86 -2 112 0 112 10 0 12 -21 151
-35 234 l-5 31 -301 0 -301 0 -67 -90z"/>
<path d="M29291 10762 c-29 -103 -56 -192 -58 -199 -4 -9 21 -13 91 -15 l95
-3 -92 -145 c-51 -80 -97 -152 -102 -160 -12 -20 118 99 300 274 l150 145
-102 1 c-57 0 -103 2 -103 5 0 7 70 253 77 273 4 9 -20 12 -98 12 l-104 0 -54
-188z"/>
<path d="M29980 10878 c-12 -40 -30 -102 -41 -137 -10 -35 -19 -65 -19 -67 0
-2 46 -4 103 -4 l102 0 38 133 c21 72 38 135 37 140 0 4 -45 7 -100 7 l-99 0
-21 -72z"/>
<path d="M30361 10882 c-29 -96 -34 -127 -27 -157 12 -48 50 -55 313 -55 131
0 254 5 273 10 61 17 96 64 128 173 l29 97 -102 0 -101 0 -15 -47 -15 -48
-142 -3 c-80 -1 -142 1 -142 6 0 5 7 28 15 51 l14 41 -104 0 -104 0 -20 -68z"/>
<path d="M31270 10878 c-12 -40 -30 -102 -41 -137 -10 -35 -19 -65 -19 -67 0
-2 46 -4 103 -4 l102 0 38 133 c21 72 38 135 37 140 0 4 -45 7 -100 7 l-99 0
-21 -72z"/>
<path d="M31631 10810 l72 -141 110 3 110 3 38 130 c21 72 39 133 39 138 0 4
-99 7 -221 7 l-220 0 72 -140z"/>
<path d="M32521 10813 c-6 -21 -17 -60 -26 -88 -8 -27 -15 -51 -15 -52 0 -2
46 -3 103 -3 l102 0 23 83 c12 45 22 85 22 90 0 4 -45 7 -100 7 l-99 0 -10
-37z"/>
<path d="M32901 10813 c-6 -21 -17 -60 -26 -88 -8 -27 -15 -51 -15 -52 0 -2
46 -3 103 -3 l102 0 23 83 c12 45 22 85 22 90 0 4 -45 7 -100 7 l-99 0 -10
-37z"/>
</g>
</svg>
